<?xml version="1.0" encoding="utf-8"?>
<!-- Generator: Adobe Illustrator 21.0.0, SVG Export Plug-In . SVG Version: 6.00 Build 0)  -->
<svg version="1.1" id="Layer_1" xmlns="http://www.w3.org/2000/svg" xmlns:xlink="http://www.w3.org/1999/xlink" x="0px" y="0px"
	 viewBox="0 0 571 609.8" style="enable-background:new 0 0 571 609.8;" xml:space="preserve">
<style type="text/css">
	.st0{fill:#423E40;}
	.st1{fill:none;}
	.st2{fill:#FFFFFF;}
	.st3{fill:none;stroke:#423E40;stroke-miterlimit:10;}
</style>
<g>
	<path class="st2" d="M334.3,426.9c8.6,9.1,16.8,17.1,26,17.1c9.4,0,17.1-7.7,17.1-17.1s-7.7-17.1-17.1-17.1
		C351.1,409.8,342.9,417.8,334.3,426.9z M360.4,450.8c-13,0-23.2-11-33.2-21.6c-9.4-10-18.3-19.5-28.4-19.5
		c-9.4,0-17.1,7.7-17.1,17.1s7.7,17.1,17.1,17.1c5.9,0,11.9-3.2,19.4-10.3c1.4-1.3,3.5-1.2,4.8,0.1c1.3,1.4,1.2,3.5-0.1,4.8
		c-6,5.7-14.2,12.2-24.1,12.2c-13.2,0-23.9-10.7-23.9-23.9c0-13.2,10.7-23.9,23.9-23.9c11.9,0,21.6,9.2,30.8,18.9
		c9.2-9.7,18.8-18.9,30.7-18.9c13.2,0,23.9,10.7,23.9,23.9C384.3,440.1,373.6,450.8,360.4,450.8z"/>
	<g>
		<path class="st2" d="M193.1,254c1.5-0.4,2.9-0.7,4.4-0.9c1.9,3.1,2.5,5.8,2.6,7.6c0.5,6-2.6,11.9-7.7,14.2c-3.2,1.4-5.5,0.4-7-0.8
			c-2.8-2.2-4.2-6.4-3.4-10.2C183,259.2,186.9,255.7,193.1,254z M225.6,275.7c0.1,0,0.2-0.1,0.3-0.1c0.1,1.9-0.1,4-0.5,6
			c-0.8,4.4-2.6,7-4.8,6.9c-2,0-3.9-1.9-4.2-4.2C216,280.9,219.4,277.7,225.6,275.7z M191.9,249.4c-10.8,3-13.7,9.7-14.5,13.5
			c-1,4.9,0.5,10.2,3.7,13.6c0.4,0.4,0.9,0.8,1.3,1.2c3.4,2.7,7.8,3.3,11.9,1.4c7-3.2,11.2-10.7,10.5-18.9c-0.2-1.8-0.7-4.5-2.2-7.5
			c6.2,0.1,11.7,2.2,15.9,6c3.5,3.2,5.8,7.4,6.8,12.2c-0.4,0.1-0.8,0.2-1.2,0.4c-12.8,4-12.7,11.6-12.4,13.9
			c0.7,4.5,4.5,8.1,8.8,8.2c1.8,0,7.7-0.7,9.5-10.8c0.5-2.6,0.7-5.2,0.5-7.8c3.2-0.2,6.2,0.4,8.7,1.9c8.1,4.8,10.5,16.8,10.5,16.9
			c0.3,1.3,1.5,2.1,2.8,1.8c1.3-0.2,2.1-1.5,1.9-2.8c-0.1-0.6-2.8-14.1-12.7-20.1c-3.5-2.1-7.4-3-11.8-2.6
			c-1.2-5.8-3.9-10.9-8.3-14.8c-5.8-5.3-13.5-7.7-22-7.1c-4.1-5.1-11.5-10.4-24.5-13.7c-1.3-0.3-2.5,0.5-2.9,1.7
			c-0.3,1.3,0.4,2.5,1.7,2.9c10,2.5,16.2,6.2,20,10C193.4,249,192.6,249.2,191.9,249.4z"/>
		<path class="st2" d="M241.2,237.7l-5.6-5.6l5.6-5.6c0.9-0.9,0.9-2.4,0-3.3c-0.9-0.9-2.4-0.9-3.3,0l-5.6,5.6l-5.6-5.6
			c-0.9-0.9-2.4-0.9-3.3,0c-0.9,0.9-0.9,2.4,0,3.3l5.6,5.6l-5.6,5.6c-0.9,0.9-0.9,2.4,0,3.3c0.5,0.5,1.1,0.7,1.7,0.7
			c0.6,0,1.2-0.2,1.7-0.7l5.6-5.6l5.6,5.6c0.5,0.5,1.1,0.7,1.7,0.7c0.6,0,1.2-0.2,1.7-0.7C242.1,240.2,242.1,238.6,241.2,237.7z"/>
		<path class="st2" d="M162.8,292.6c-5.2,2.1-8.1,3.1-11.2,0c-0.9-0.9-2.4-0.9-3.3,0c-0.9,0.9-0.9,2.4,0,3.3
			c2.5,2.4,5.1,3.3,7.6,3.3c3,0,5.9-1.2,8.7-2.3c5.3-2.2,10.4-4.2,16.5,0.6c1,0.8,2.5,0.6,3.3-0.4c0.8-1,0.6-2.5-0.4-3.3
			C175.7,287.4,168.6,290.2,162.8,292.6z"/>
		<path class="st2" d="M262.3,217.2c-0.2-0.6-0.4-1.1-0.3-1.7c0.1-1,0.6-1.9,1.4-2.9c2.4-2.6,6-3.1,9.5-2.8c-0.1,1-0.3,2.1-0.6,3.3
			c-1.3,4-3.4,6.3-5.9,6.5C264.7,219.7,263,218.7,262.3,217.2z M276.8,214.6c0.4-1.3,0.7-2.6,0.8-3.8c3.9,1,6.9,2.6,6.9,2.6
			c1.2,0.6,2.6,0.1,3.2-1c0.1-0.3,0.3-0.6,0.3-0.9c0.1-0.9-0.4-1.8-1.3-2.3c-0.3-0.2-4.3-2.2-9.3-3.3c-1.8-9.5-11.2-16.3-17.2-19.1
			c-1.2-0.5-2.6,0-3.1,1.2c-0.5,1.2,0,2.6,1.2,3.1c0.1,0.1,11.3,5.3,14.1,14c-4.4-0.2-9,0.7-12.4,4.3c-2.7,2.9-3.5,6.6-1.9,9.8
			c1.5,3.3,5,5.3,8.7,5.1C268.8,224.2,274.1,222.9,276.8,214.6z"/>
		<path class="st2" d="M321.8,253.7c-0.7,1.7-1.7,3.3-3.9,2.3c-2-0.9-1.6-2.7-1-4.3c0.7-1.7,1.5-3.4,2-5.2
			c3.3-10.2,0.4-18.8-6.7-26.3c-4.9-5.2-10.5-9.7-14.9-15.3c-4.5-5.7-6-12-3.8-19.1c0.4-1.2,0.9-2.4,1.6-3.5c0.7-1.1,2-1.4,3.2-0.8
			c1.1,0.6,1.6,1.6,1.2,2.8c-0.5,1.7-1.1,3.3-1.5,5.1c-1,4.9,0.6,9.1,3.7,12.9c4.1,5,9.2,9.2,13.7,13.8
			C326.2,227.2,328.2,239.7,321.8,253.7z"/>
		<path class="st2" d="M388.1,273.5c1.9-1.9,5.2-3.4,8.9-4.3c4.8-1.3,9.8-2.2,14.6-3.5c4-1.1,7.7-2.7,10.7-5.6
			c1.3-1.3,3-1.9,4.4-0.2c1.4,1.7,0.3,3-1.1,4.3c-4.6,4.3-10.3,6.2-16.2,7.6c-3.5,0.8-7.1,1.5-10.6,2.4c-7.8,1.9-11.1,5.9-11.7,13.8
			c-0.1,1-0.1,2-0.3,3c-0.2,1.5-1.1,2.4-2.6,2.4c-1.5,0-2.4-1-2.4-2.5C381.9,284.7,382.7,278.9,388.1,273.5z"/>
		<path class="st2" d="M260.4,237.5L260.4,237.5c2-2,5.2-2,7.2,0c4.5,4.8-2.4,11.7-7.2,7.2C258.5,242.7,258.5,239.5,260.4,237.5z"/>
		<path class="st2" d="M307.7,294.9c2.1,2.1,2,5.1-0.1,7.1c-2,2-5.3,1.9-7.2-0.2c-1.8-2-1.8-5.1,0.1-7.1
			C302.5,292.8,305.8,292.9,307.7,294.9z"/>
		<path class="st2" d="M436.5,291.7c-1.9,1.9-5.4,1.8-7.3-0.1c-1.9-2.1-1.9-5.3,0.1-7.3c2-1.9,5.4-1.9,7.3,0.1
			C438.5,286.4,438.4,289.9,436.5,291.7z"/>
		<path class="st2" d="M284.4,276c3.2,1.6,6.1,3.9,6.8,7.3c0.4,2-0.1,3.6-1.4,4.5c-1.4,0.9-3.4,0.9-4.8-0.1c-2-1.4-2.6-4.6-1.7-8.6
			C283.5,278,283.9,276.9,284.4,276z M282.7,270.2c-4.9-1.6-9.3-1.9-9.7-2c-1.3-0.1-2.4,0.9-2.5,2.2c0,1.3,0.9,2.4,2.2,2.5
			c0.1,0,3.4,0.3,7.3,1.3c-0.5,1.1-1,2.4-1.3,3.7c-2,8.6,1.9,12.3,3.6,13.6c3,2.1,7.1,2.1,10.1,0.1c3-2,4.2-5.5,3.4-9.4
			c-1-4.8-4.5-8-8.4-10.1c6.7-6,18.7-4.8,19.3-4.7c1.3,0.1,2.5-0.8,2.6-2.1c0-0.1,0-0.2,0-0.3c0-1.2-0.9-2.2-2.1-2.3
			C300.6,262,289,263,282.7,270.2z"/>
		<path class="st2" d="M368.4,233.7l-5.6-5.6l5.6-5.6c0.9-0.9,0.9-2.4,0-3.3c-0.9-0.9-2.4-0.9-3.3,0l-5.6,5.6l-5.6-5.6
			c-0.9-0.9-2.4-0.9-3.3,0c-0.9,0.9-0.9,2.4,0,3.3l5.6,5.6l-5.6,5.6c-0.9,0.9-0.9,2.4,0,3.3c0.5,0.5,1.1,0.7,1.7,0.7
			c0.6,0,1.2-0.2,1.7-0.7l5.6-5.6l5.6,5.6c0.5,0.5,1.1,0.7,1.7,0.7c0.6,0,1.2-0.2,1.7-0.7C369.3,236.1,369.3,234.6,368.4,233.7z"/>
		<path class="st2" d="M327.6,163.7c3.1-0.7,5.5-0.2,6.7,1.3c0.8,1.1,0.8,2.6,0,3.7c-0.7,1-1.9,1.4-3.5,1.1
			c-2.7-0.6-4.5-2.8-5.7-5.3C325.9,164.2,326.7,163.9,327.6,163.7z M314.8,182.3c0.1,0.9,0.9,1.6,1.8,1.6c0.1,0,0.2,0,0.2,0
			c1-0.1,1.7-1,1.6-2c-0.1-0.5-1-9.8,3.7-15c1.6,3.1,4.1,5.8,7.8,6.6c3.1,0.7,5.8-0.3,7.4-2.6c1.5-2.3,1.5-5.5-0.1-7.8
			c-1-1.4-3.8-4.4-10.5-2.8c-1,0.2-2,0.6-2.9,1c-0.8-3-1-5.6-1-5.6c-0.1-1-1-1.8-1.9-1.7c-1,0.1-1.8,0.9-1.7,1.9
			c0,0.3,0.3,3.7,1.5,7.5C315.1,168.2,314.3,177.2,314.8,182.3z"/>
		<path class="st2" d="M345.5,203.6l-0.2-3.2c-0.4-6.3-0.7-12.7-0.2-18.5c0.6-6.9,2.5-11.9,5.7-15.4c2.2-2.4,5.3-3.7,8.6-3.7
			c3.2,0,6.4,1.2,8.8,3.4c2.8,2.6,4.1,5.4,4,9c0.8-0.1,1.5-0.1,2.2,0c2.6,0.3,4.9,1.4,7,3.4c2.4,2.3,3.8,5.3,4,8.5
			c0.2,3.3-0.9,6.4-3.2,8.8c-3.2,3.4-8,5.5-15,6.6c-5.7,0.9-12.2,0.9-18.5,1L345.5,203.6z M361.8,167.5c-0.8-0.2-1.6-0.4-2.5-0.4
			c-2.1,0-4,0.9-5.5,2.4c-2.5,2.7-4,6.9-4.5,12.8c-0.5,5.2-0.2,11.2,0.2,17c5.8-0.1,11.8-0.1,17-0.9c6-0.9,10-2.6,12.5-5.3
			c1.4-1.5,2.1-3.5,2-5.6c-0.1-2.1-1.1-4.1-2.7-5.6c-1.5-1.4-2.9-2.1-4.5-2.3c-1.1-0.1-2.2,0-3.6,0.4l-3.3,0.9l0.7-3.4
			c0.7-3.6,0.1-5.7-2.4-8C364.2,168.5,363,167.8,361.8,167.5z"/>
		<path class="st2" d="M204.2,225l-2.7-1.2c-4.6-2.1-9.4-4.3-13.3-6.9c-4.8-3.1-7.7-6.4-9-10c-0.9-2.6-0.7-5.4,0.6-7.8
			c1.3-2.4,3.4-4.2,6-5.1c2.9-1,5.4-0.9,7.9,0.3c0.2-0.4,0.4-0.8,0.7-1.2c1.2-1.8,2.9-3.1,5.3-3.9c2.6-0.9,5.4-0.8,7.9,0.4
			c2.5,1.2,4.4,3.2,5.3,5.8c1.3,3.7,1,8-0.9,13.4c-1.5,4.4-3.9,9-6.2,13.5L204.2,225z M189.5,197.5c-0.7,0-1.5,0.2-2.3,0.4
			c-1.6,0.5-2.8,1.6-3.6,3.1c-0.7,1.4-0.9,3-0.4,4.5c0.9,2.7,3.3,5.3,7.3,7.8c3.4,2.2,7.6,4.2,11.8,6.1c2.1-4.1,4.2-8.2,5.5-12.1
			c1.5-4.5,1.8-8,0.9-10.6c-0.5-1.5-1.6-2.6-3-3.3c-1.5-0.7-3.1-0.8-4.7-0.2c-1.5,0.5-2.4,1.2-3.1,2.2c-0.4,0.7-0.8,1.5-1,2.6
			l-0.8,3.3l-2.7-2.1C192,198.1,190.8,197.5,189.5,197.5z"/>
		<path class="st2" d="M233.1,176.6c-0.8,0-1.6-0.2-2.3-0.7c-1.3-0.9-2.1-2.4-1.9-4l0.7-5.3l-4-3.5c-1.2-1.1-1.7-2.7-1.3-4.3
			c0.4-1.6,1.7-2.7,3.3-3l5.2-1l2.1-4.9c0.6-1.5,2.1-2.4,3.7-2.5c1.7-0.1,3.1,0.8,3.9,2.2l2.6,4.7l5.3,0.5c1.6,0.2,3,1.2,3.5,2.7
			c0.6,1.5,0.2,3.2-0.9,4.3l-3.6,3.9l1.1,5.2c0.3,1.6-0.2,3.2-1.5,4.2c-1.3,1-2.9,1.2-4.4,0.5l-4.8-2.3l-4.6,2.7
			C234.6,176.4,233.9,176.6,233.1,176.6z M238.8,151.6l-2.9,6.9l-7.4,1.4l5.7,4.9l-0.9,7.5l6.4-3.9l6.8,3.2l-1.7-7.3l5.1-5.4
			l-7.4-0.7L238.8,151.6z M249.9,158.9l1.6,1.5L249.9,158.9C249.9,158.9,249.9,158.9,249.9,158.9z"/>
		<path class="st2" d="M359.1,290.6c-1.4,0-2.7-0.6-3.7-1.6l-5.5-5.8l-7.9,1.2c-1.9,0.3-3.8-0.5-4.9-2.1c-1.1-1.6-1.2-3.6-0.3-5.3
			l3.8-7l-3.6-7.1c-0.9-1.7-0.7-3.8,0.5-5.3c1.2-1.5,3.1-2.3,5-1.9l7.8,1.5l5.7-5.6c1.4-1.4,3.4-1.8,5.2-1.2
			c1.8,0.6,3.1,2.2,3.4,4.1l1,7.9l7.1,3.7c1.7,0.9,2.8,2.6,2.7,4.6c0,1.9-1.1,3.7-2.9,4.5l-0.9-1.9l0.9,1.9l-7.2,3.4l-1.3,7.9
			c-0.3,1.9-1.7,3.5-3.5,4C360.1,290.5,359.6,290.6,359.1,290.6z M351.5,278.6l7,7.4c0.3,0.3,0.6,0.3,0.8,0.2
			c0.2-0.1,0.5-0.2,0.5-0.6l1.6-10.1l9.2-4.4c0.4-0.2,0.4-0.5,0.4-0.7c0-0.2,0-0.5-0.4-0.7l-9.1-4.7l-1.3-10.1
			c-0.1-0.4-0.3-0.6-0.5-0.6c-0.2-0.1-0.5-0.1-0.8,0.2l-7.3,7.2l-10-1.9c-0.4-0.1-0.7,0.2-0.8,0.3c-0.1,0.1-0.3,0.4-0.1,0.8l4.6,9.1
			l-4.9,9c-0.2,0.4-0.1,0.7,0,0.8c0.1,0.2,0.3,0.4,0.7,0.3L351.5,278.6z"/>
		<g>
			<path class="st2" d="M294.4,150.2c-0.3,0-0.5-0.1-0.7-0.3l-20.4-16.8c-0.4-0.3-0.5-0.8-0.3-1.2l3.1-8.8c0.1-0.4,0.5-0.7,0.9-0.7
				l25.3-4.2c0.4-0.1,0.8,0.1,1.1,0.4l5.8,7.3c0.3,0.4,0.3,0.9,0.1,1.3l-13.8,22.5c-0.2,0.3-0.5,0.5-0.8,0.5
				C294.5,150.2,294.5,150.2,294.4,150.2z M275.4,131.9l18.8,15.5l12.7-20.8l-4.9-6.2l-24,4L275.4,131.9z"/>
			<path class="st2" d="M274,133.4c-0.5,0-1-0.4-1.1-0.9c-0.1-0.6,0.3-1.2,0.9-1.3l34.1-5.7c0.6-0.1,1.2,0.3,1.3,0.9
				c0.1,0.6-0.3,1.2-0.9,1.3l-34.1,5.7C274.2,133.4,274.1,133.4,274,133.4z"/>
			<path class="st2" d="M294.4,150.2c-0.4,0-0.7-0.2-0.9-0.5l-17.3-25.6c-0.3-0.5-0.2-1.2,0.3-1.6c0.5-0.3,1.2-0.2,1.6,0.3
				l17.3,25.6c0.3,0.5,0.2,1.2-0.3,1.6C294.8,150.1,294.6,150.2,294.4,150.2z"/>
			<path class="st2" d="M294.4,150.2c-0.1,0-0.2,0-0.3,0c-0.6-0.2-1-0.8-0.8-1.4l8-29.8c0.2-0.6,0.8-0.9,1.4-0.8
				c0.6,0.2,1,0.8,0.8,1.4l-8,29.8C295.3,149.9,294.9,150.2,294.4,150.2z"/>
			<path class="st2" d="M282.1,132c-0.2,0-0.5-0.1-0.7-0.2c-0.5-0.4-0.6-1.1-0.2-1.6l7.6-9.5c0.4-0.5,1-0.6,1.5-0.2l10.3,6.6
				c0.5,0.3,0.7,1,0.3,1.5c-0.3,0.5-1,0.7-1.5,0.3l-9.5-6l-7,8.8C282.8,131.9,282.5,132,282.1,132z"/>
		</g>
		<g>
			<path class="st2" d="M156.4,269.8C156.4,269.8,156.4,269.8,156.4,269.8l-23.9-1.1c-0.5,0-0.9-0.3-1-0.8l-2.5-8
				c-0.1-0.4,0-0.8,0.3-1.1l16-16.8c0.3-0.3,0.7-0.4,1.1-0.3l8.1,2.1c0.5,0.1,0.8,0.5,0.8,1l2.3,23.8c0,0.3-0.1,0.6-0.3,0.9
				C157,269.6,156.7,269.8,156.4,269.8z M133.4,266.5l21.8,1l-2.1-21.7l-6.7-1.8l-15.1,15.8L133.4,266.5z"/>
			<path class="st2" d="M132.6,268.7c-0.3,0-0.6-0.1-0.8-0.3c-0.4-0.4-0.5-1.1,0-1.6l21.6-22.7c0.4-0.5,1.1-0.5,1.6,0
				c0.4,0.4,0.5,1.1,0,1.6l-21.6,22.7C133.2,268.5,132.9,268.7,132.6,268.7z"/>
			<path class="st2" d="M156.4,269.8c-0.1,0-0.2,0-0.4-0.1l-26.4-9.1c-0.6-0.2-0.9-0.8-0.7-1.4c0.2-0.6,0.8-0.9,1.4-0.7l26.4,9.1
				c0.6,0.2,0.9,0.8,0.7,1.4C157.3,269.5,156.9,269.8,156.4,269.8z"/>
			<path class="st2" d="M156.4,269.8c-0.4,0-0.9-0.3-1-0.7L145,243.2c-0.2-0.6,0-1.2,0.6-1.5c0.6-0.2,1.2,0,1.5,0.6l10.4,25.9
				c0.2,0.6,0,1.2-0.6,1.5C156.7,269.7,156.6,269.8,156.4,269.8z"/>
			<path class="st2" d="M137.7,263.3C137.7,263.3,137.7,263.3,137.7,263.3c-0.7,0-1.1-0.5-1.1-1.2l0.3-11c0-0.6,0.5-1,1-1.1l11-0.9
				c0.8-0.1,1.2,0.4,1.2,1c0.1,0.6-0.4,1.2-1,1.2l-10,0.8l-0.3,10C138.8,262.8,138.3,263.3,137.7,263.3z"/>
		</g>
		<g>
			<path class="st2" d="M393.7,246.2c-0.1,0-0.3,0-0.4-0.1c-0.3-0.1-0.5-0.4-0.6-0.7l-7.4-20.5c-0.2-0.4,0-0.9,0.3-1.2l5.9-4.9
				c0.3-0.3,0.7-0.3,1.1-0.2l19.7,7.6c0.4,0.1,0.7,0.5,0.7,0.9l1,7.6c0.1,0.5-0.2,0.9-0.6,1.1l-19.2,10.2
				C394,246.1,393.9,246.2,393.7,246.2z M387.6,225l6.7,18.5l17.4-9.2l-0.8-6.2l-18.5-7.1L387.6,225z"/>
			<path class="st2" d="M412.9,236c-0.1,0-0.3,0-0.4-0.1l-26.6-10.3c-0.6-0.2-0.9-0.9-0.6-1.5s0.9-0.9,1.5-0.6l26.6,10.3
				c0.6,0.2,0.9,0.9,0.6,1.5C413.8,235.7,413.4,236,412.9,236z"/>
			<path class="st2" d="M393.7,246.2c-0.6,0-1.1-0.5-1.1-1.1l-1.5-25.4c0-0.6,0.4-1.1,1.1-1.2c0,0,0,0,0.1,0c0.6,0,1.1,0.5,1.1,1.1
				l1.5,25.4C394.8,245.6,394.4,246.2,393.7,246.2C393.7,246.2,393.7,246.2,393.7,246.2z"/>
			<path class="st2" d="M393.7,246.2c-0.3,0-0.6-0.1-0.8-0.3c-0.4-0.4-0.4-1.2,0-1.6l18.2-17.8c0.5-0.4,1.2-0.4,1.6,0
				c0.4,0.4,0.4,1.2,0,1.6l-18.2,17.8C394.3,246.1,394,246.2,393.7,246.2z"/>
			<path class="st2" d="M406.6,233.6c-0.4,0-0.8-0.2-1-0.6l-4.1-8.1l-8.5,3.2c-0.6,0.2-1.2-0.1-1.4-0.7c-0.2-0.6,0.1-1.2,0.7-1.4
				l9.4-3.6c0.5-0.2,1.1,0,1.4,0.5l4.6,9c0.3,0.6,0.1,1.2-0.5,1.5C406.9,233.6,406.8,233.6,406.6,233.6z"/>
		</g>
		<g>
			<path class="st2" d="M285.8,115.7c-0.5,0-0.9-0.3-1.1-0.8l-1.3-4.2c-0.2-0.6,0.1-1.2,0.7-1.4c0.6-0.2,1.2,0.1,1.4,0.7l1.3,4.2
				c0.2,0.6-0.1,1.2-0.7,1.4C286,115.7,285.9,115.7,285.8,115.7z"/>
			<path class="st2" d="M276.6,118.6c-0.2,0-0.4,0-0.5-0.1l-3.9-2c-0.5-0.3-0.8-1-0.5-1.5c0.3-0.5,1-0.8,1.5-0.5l3.9,2
				c0.5,0.3,0.8,1,0.5,1.5C277.4,118.4,277,118.6,276.6,118.6z"/>
			<path class="st2" d="M294.9,112.8c-0.2,0-0.4,0-0.5-0.1c-0.6-0.3-0.8-1-0.5-1.5l2-3.9c0.3-0.6,1-0.8,1.5-0.5
				c0.6,0.3,0.8,1,0.5,1.5l-2,3.9C295.7,112.6,295.3,112.8,294.9,112.8z"/>
		</g>
		<g>
			<path class="st2" d="M417.5,223c-0.3,0-0.6-0.1-0.8-0.4c-0.4-0.4-0.4-1.2,0-1.6l3.2-3c0.4-0.4,1.2-0.4,1.6,0
				c0.4,0.4,0.4,1.2,0,1.6l-3.2,3C418,222.9,417.8,223,417.5,223z"/>
			<path class="st2" d="M410.9,216C410.8,216,410.8,216,410.9,216c-0.7,0-1.1-0.5-1.1-1.1l0.1-4.4c0-0.6,0.5-1.1,1.1-1.1
				c0,0,0,0,0,0c0.6,0,1.1,0.5,1.1,1.1l-0.1,4.4C412,215.5,411.5,216,410.9,216z"/>
			<path class="st2" d="M428.5,230.1C428.5,230.1,428.5,230.1,428.5,230.1l-4.5-0.1c-0.6,0-1.1-0.5-1.1-1.1c0-0.6,0.5-1.1,1.1-1.1
				c0,0,0,0,0,0l4.4,0.1c0.6,0,1.1,0.5,1.1,1.1C429.6,229.6,429.1,230.1,428.5,230.1z"/>
		</g>
		<g>
			<path class="st2" d="M132,245.4c-0.3,0-0.5-0.1-0.8-0.3l-3.3-3c-0.5-0.4-0.5-1.1-0.1-1.6c0.4-0.5,1.1-0.5,1.6-0.1l3.3,3
				c0.5,0.4,0.5,1.1,0.1,1.6C132.6,245.2,132.3,245.4,132,245.4z"/>
			<path class="st2" d="M121,252.6c-0.6,0-1.1-0.5-1.1-1.1c0-0.6,0.5-1.1,1.1-1.2l4.4-0.2c0,0,0,0,0,0c0.6,0,1.1,0.5,1.1,1.1
				c0,0.6-0.5,1.1-1.1,1.2L121,252.6C121.1,252.6,121,252.6,121,252.6z"/>
			<path class="st2" d="M138.5,238.3c-0.6,0-1.1-0.5-1.1-1.1l-0.2-4.4c0-0.6,0.5-1.1,1.1-1.2c0,0,0,0,0,0c0.6,0,1.1,0.5,1.1,1.1
				l0.2,4.4C139.7,237.7,139.2,238.3,138.5,238.3C138.6,238.3,138.5,238.3,138.5,238.3z"/>
		</g>
		<path class="st2" d="M116.5,279.4c2.1,2.1,2,5.1-0.1,7.1c-2,2-5.3,1.9-7.2-0.2c-1.8-2-1.8-5.1,0.1-7.1
			C111.3,277.3,114.6,277.4,116.5,279.4z"/>
		<path class="st2" d="M278.2,172.5c-1.9,1.9-5.4,1.8-7.3-0.1c-1.9-2.1-1.9-5.3,0.1-7.3c2-1.9,5.4-1.9,7.3,0.1
			C280.2,167.1,280.1,170.6,278.2,172.5z"/>
	</g>
	<g>
		<path class="st2" d="M399.3,314.9h-231c-2.5,0-5,0.8-7,2.4l-54,41.8c-2.4,1.8-3.3,4.9-2.3,7.7c1,2.9,3.6,4.7,6.6,4.7h48.9v114.3
			c0,9.6,7.8,17.4,17.4,17.4H251h8.3h127.3c11,0,20-8.9,20-20V371.5h49.6c3,0,5.6-1.8,6.6-4.7c1-2.9,0.1-5.9-2.3-7.7l-54.1-41.8
			C404.3,315.7,401.9,314.9,399.3,314.9z M115.5,363.2l51.1-39.5l76.3-0.6l-48.6,37.6c-2.2,1.7-4.9,2.6-7.6,2.6H115.5z M251,494.9
			h-70c-6.7,0-12.2-5.4-12.2-12.2V371.5h17.9c4.6,0,9-1.5,12.6-4.3l51.6-39.9V494.9z M398.3,480.1c0,8.2-6.6,14.8-14.8,14.8H259.3
			V327.3l51.6,39.9c3.6,2.8,8.1,4.3,12.6,4.3h74.8V480.1z M323.5,363.2c-2.7,0-5.4-0.9-7.6-2.6L267.3,323l131.1,0.3l2.4,0l51.6,39.9
			H323.5z"/>
	</g>
</g>
<rect class="st1" width="571" height="609.8"/>
</svg>
