<?xml version="1.0" encoding="utf-8"?>
<!-- Generator: Adobe Illustrator 21.0.0, SVG Export Plug-In . SVG Version: 6.00 Build 0)  -->
<svg version="1.1" id="Layer_1" xmlns="http://www.w3.org/2000/svg" xmlns:xlink="http://www.w3.org/1999/xlink" x="0px" y="0px"
	 viewBox="0 0 813.5 425.2" style="enable-background:new 0 0 813.5 425.2;" xml:space="preserve">
<style type="text/css">
	.st0{fill:#423E40;}
	.st1{fill:none;}
	.st2{fill:#FFFFFF;}
	.st3{fill:none;stroke:#423E40;stroke-miterlimit:10;}
</style>
<g>
	<g>
		<path class="st2" d="M238.7,299.9v6.6c0,7.5-4.4,12.5-12.9,12.5c-1.3,0-3.2-0.1-4.8-0.5l-5-11.7l-3.3-0.6v-4h7.9l4.6,12.5h0.6
			c4.6,0,6.6-3.1,6.6-8.3V300c0-4.8-2.3-7.3-7-7.3c-4.2,0-5.9,2-6.5,3.3h-5.5v-3.4c1.9-1.8,6-4.3,12.5-4.3
			C234.2,288.4,238.7,292.8,238.7,299.9z"/>
		<path class="st2" d="M226.6,281.2v-3.3h6.3v1.9c0,0.6,0.3,1,1,1h14.3v4.4h-17.3C228.4,285.1,226.6,284,226.6,281.2z"/>
		<path class="st2" d="M274.5,314.3v4h-9.1v-3.7c-1.2,1.4-4.4,4.4-9.5,4.4c-5.3,0-10.5-3.2-10.5-11.1v-14.2l-2.8-0.6v-4h9.1v18.7
			c0,5.1,2.5,6.9,5.6,6.9c4,0,6.8-3,8.2-5.3v-15.6l-2.8-0.6v-4h9.1v24.6L274.5,314.3z"/>
		<path class="st2" d="M278.8,314.3l2.8-0.6v-19.9l-2.8-0.6v-4h9.1v3.4c1.2-1.5,4.3-4,9.3-4c5.7,0,10.7,3.2,10.7,11.4v13.9l2.8,0.6
			v4h-11.9v-4l2.8-0.6v-13.7c0-5.4-3-7.2-6.1-7.2c-3.7,0-6.3,2.5-7.6,5v15.9l2.8,0.6v4h-11.9V314.3z"/>
		<path class="st2" d="M315.7,314.9v-3.5h6.2c0.8,1.5,1.9,3.2,5.8,3.2c3.5,0,5.7-1.4,5.7-3.9c0-2.2-1.7-3.5-7.8-5.8
			c-7-2.7-9.9-5.2-9.9-9.2c0-4.7,4.2-7.3,11.3-7.3c6.6,0,10.1,2.3,11.9,3.8v3.7h-5.7c-0.6-1.3-2-3.2-6.1-3.2c-3,0-4.9,1-4.9,2.9
			c0,2,2.2,3.3,8.8,5.8c5.7,2.2,8.9,4.4,8.9,9c0,5.9-5.4,8.5-11.9,8.5C321,318.9,317.1,316,315.7,314.9z"/>
		<path class="st2" d="M328.7,283c0-2.8,1.9-4,4.4-4h13.1v4.4h-10.7c-0.7,0-1.1,0.4-1.1,1v1.8h-5.8V283z"/>
		<path class="st2" d="M353.7,313.6l2.8,0.6v4h-11.9v-4l2.8-0.6v-19.9l-2.8-0.6v-4h9.1V313.6z"/>
		<path class="st2" d="M385.3,299.9v6.6c0,7.5-4.4,12.5-12.9,12.5c-1.3,0-3.2-0.1-4.8-0.5l-5-11.7l-3.3-0.6v-4h7.9l4.6,12.5h0.6
			c4.6,0,6.6-3.1,6.6-8.3V300c0-4.8-2.3-7.3-7-7.3c-4.2,0-5.9,2-6.5,3.3h-5.5v-3.4c1.9-1.8,6-4.3,12.5-4.3
			C380.8,288.4,385.3,292.8,385.3,299.9z"/>
		<path class="st2" d="M374.5,284.7v-2l1.1-2h-3v-4.4h8.2v3.2l-0.9,1.6c0.8,0.2,1.7,0.3,2.5,0.3c2.8,0,5-0.8,6.6-2.1h4.7v3.5
			c-1.9,1.3-5.4,2.9-11.1,2.9C380,285.7,376.9,285.4,374.5,284.7z"/>
		<path class="st2" d="M414.4,314.3v4h-11.9v-4l2.8-0.6v-14.8c0-4.3-1.6-6-5.3-6c-4,0-5,2.1-5.3,3.3H389v-3.4
			c1.6-1.6,4.8-4.3,11.3-4.3c7.6,0,11.4,3.6,11.4,10.2v15L414.4,314.3z"/>
		<path class="st2" d="M451.2,314.3v4h-11.9v-4l2.8-0.6v-13.3c0-4.8-2.3-7.5-7.2-7.5c-4.9,0-7.2,2.7-7.2,7.5v12l5.7-6.2l-2.8-0.6v-4
			h8.1v5.2l-11.3,11.6h-8.8v-4l2.8-0.6v-13.3c0-7.4,4.8-11.9,13.5-11.9c8.7,0,13.4,4.5,13.4,11.9v13.3L451.2,314.3z"/>
		<path class="st2" d="M482.6,299.7v7.8c0,7.5-5.9,11.4-13.8,11.4s-13.5-3.9-13.5-10.2v-2.3c0-3.7,2.5-6,7.3-6c1.9,0,4,0.3,6,0.8
			v3.8h-4.4c-0.4-0.2-0.8-0.3-1.1-0.3c-1,0-1.5,0.6-1.5,1.8v1.9c0,3.5,2.3,6.1,7.3,6.1c5,0,7.5-2.6,7.5-6.9v-7.9
			c0-4.5-2.5-7.1-7.5-7.1c-4.6,0-6.4,2.2-7.2,3.3H456v-3.4c1.9-1.5,6.2-4.3,13-4.3C477.6,288.4,482.6,292.6,482.6,299.7z"/>
		<path class="st2" d="M487.7,314.3l2.8-0.6v-19.9l-2.8-0.6v-4h9.1v3.4c1.2-1.5,4.3-4,9.3-4c5.7,0,10.7,3.2,10.7,11.4v13.9l2.8,0.6
			v4h-11.9v-4l2.8-0.6v-13.7c0-5.4-3-7.2-6.1-7.2c-3.7,0-6.3,2.5-7.6,5v15.9l2.8,0.6v4h-11.9V314.3z"/>
		<path class="st2" d="M523.9,314.3l2.8-0.6v-13.3c0-7.5,4.8-11.9,13.5-11.9c8.7,0,13.4,4.4,13.4,11.9v13.3l2.8,0.6v4h-11.9v-4
			l2.8-0.6v-13.3c0-4.8-2.3-7.5-7.2-7.5c-4.9,0-7.2,2.7-7.2,7.5v4.5c0.6-1.6,2.7-3.7,5.7-3.7h4.8v7.2h-4.5l-1-2.8
			c-2.3,0-4.5,1.5-4.9,4.2v4l2.8,0.6v4h-11.9V314.3z"/>
		<path class="st2" d="M588.3,299.7v7.8c0,7.5-5.9,11.4-13.8,11.4c-7.9,0-13.5-3.9-13.5-10.2v-2.3c0-3.7,2.5-6,7.3-6
			c1.9,0,4,0.3,6,0.8v3.8H570c-0.4-0.2-0.8-0.3-1.1-0.3c-1,0-1.5,0.6-1.5,1.8v1.9c0,3.5,2.3,6.1,7.3,6.1c5,0,7.5-2.6,7.5-6.9v-7.9
			c0-4.5-2.5-7.1-7.5-7.1c-4.6,0-6.4,2.2-7.2,3.3h-5.7v-3.4c1.9-1.5,6.2-4.3,13-4.3C583.3,288.4,588.3,292.6,588.3,299.7z"/>
		<path class="st2" d="M622.3,307.9c0,7.8-5,11.1-10.8,11.1c-4.8,0-7.5-2.2-8.9-4v3.4h-9.1v-4l2.8-0.6v-19.9l-2.8-0.6v-4h9.1v20.6
			c1.4,2.4,3.9,5,7.6,5c3.1,0,5.9-1.8,5.9-6.9v-14l-2.8-0.6v-4h9.1V307.9z"/>
	</g>
	<g>
		<path class="st2" d="M187.7,195.9c0-15.4,11.2-22.2,27.6-23.4L238,171v-2.7c0-9.9-4.6-14.4-14.8-14.4c-7.9,0-11.8,2.8-13.7,5.6
			c-0.9,1.4-2.6,2.1-4.2,2.1h-8.3c-2.7,0-4.9-2.2-4.9-4.9v-2.7c0-1.7,0.8-3.2,2.3-4.2c6-3.9,15.8-8.4,29.6-8.4
			c19.8,0,32.2,9,32.2,27v36.8l4.2,0.9c2.3,0.5,3.9,2.5,3.9,4.8v2.8c0,2.7-2.2,4.9-4.9,4.9h-16.4c-2.7,0-4.9-2.2-4.9-4.9v-3.8
			c-4.6,5.7-12.4,10.5-23.5,10.5C199.5,220.4,187.7,211.7,187.7,195.9z M238,188.7v-4.9l-19,1c-8.8,0.6-12.7,4.2-12.7,11.1
			c0,8.4,5.7,12,13,12C228.7,207.8,238,201.9,238,188.7z"/>
		<path class="st2" d="M277.6,206.1l4.2-0.9v-48.5l-4.2-0.9c-2.3-0.5-3.9-2.5-3.9-4.8v-2.8c0-2.7,2.2-4.9,4.9-4.9H295
			c2.7,0,4.9,2.2,4.9,4.9v2.9c2.7-2.7,10.8-9.6,23.8-9.6c14.8,0,28.3,9.1,28.3,28.9v34.9l4.2,0.9c2.3,0.5,3.9,2.5,3.9,4.8v2.8
			c0,2.7-2.2,4.9-4.9,4.9h-24.4c-2.7,0-4.9-2.2-4.9-4.9v-2.8c0-2.3,1.6-4.3,3.9-4.8l4.2-0.9v-34.4c0-11.7-6.9-16.8-15.3-16.8
			c-7.9,0-15,4.5-18.7,10.3v40.9l4.2,0.9c2.3,0.5,3.9,2.5,3.9,4.8v2.8c0,2.7-2.2,4.9-4.9,4.9h-24.4c-2.7,0-4.9-2.2-4.9-4.9v-2.8
			C273.8,208.6,275.4,206.6,277.6,206.1z"/>
		<path class="st2" d="M410.6,195.9c0-15.4,11.2-22.2,27.6-23.4l22.8-1.5v-2.7c0-9.9-4.6-14.4-14.8-14.4c-7.9,0-11.8,2.8-13.7,5.6
			c-0.9,1.4-2.6,2.1-4.2,2.1h-8.3c-2.7,0-4.9-2.2-4.9-4.9v-2.7c0-1.7,0.8-3.2,2.3-4.2c6-3.9,15.8-8.4,29.6-8.4
			c19.8,0,32.2,9,32.2,27v36.8l4.2,0.9c2.3,0.5,3.9,2.5,3.9,4.8v2.8c0,2.7-2.2,4.9-4.9,4.9h-16.4c-2.7,0-4.9-2.2-4.9-4.9v-3.8
			c-4.6,5.7-12.4,10.5-23.5,10.5C422.4,220.4,410.6,211.7,410.6,195.9z M460.9,188.7v-4.9l-19,1c-8.8,0.6-12.7,4.2-12.7,11.1
			c0,8.4,5.7,12,13,12C451.6,207.8,460.9,201.9,460.9,188.7z"/>
		<path class="st2" d="M495.5,187.9v-14.1c0-19.9,13.5-32.5,37.3-32.5c23.7,0,37.1,12.6,37.1,32.5v14.1c0,19.9-13.5,32.5-37.1,32.5
			C509,220.4,495.5,207.8,495.5,187.9z M551.8,187.6v-13.5c0-13-6-20.2-19-20.2c-13.2,0-19.2,7.2-19.2,20.2v13.5
			c0,13,6,20.2,19.2,20.2C545.8,207.8,551.8,200.7,551.8,187.6z"/>
		<path class="st2" d="M584.6,156.6l-3.5-0.9c-2.2-0.5-3.7-2.5-3.7-4.8v-2.9c0-2.7,2.2-4.9,4.9-4.9h25.3c2.7,0,4.9,2.2,4.9,4.9v2.7
			c0,2.3-1.6,4.4-3.9,4.8l-4.9,1l13.2,46l15-46l-4.2-0.9c-2.3-0.5-3.9-2.5-3.9-4.8v-2.8c0-2.7,2.2-4.9,4.9-4.9h25.8
			c2.7,0,4.9,2.2,4.9,4.9v2.8c0,2.3-1.6,4.3-3.9,4.8l-4.4,1l15,46l13.2-46l-4.9-1c-2.3-0.5-3.9-2.5-3.9-4.8v-2.7
			c0-2.7,2.2-4.9,4.9-4.9h25.3c2.7,0,4.9,2.2,4.9,4.9v2.9c0,2.3-1.5,4.2-3.7,4.8l-3.5,0.9l-19.3,58.6c-0.7,2-2.6,3.4-4.7,3.4h-14.8
			c-2.2,0-4.1-1.4-4.7-3.5l-13.4-42.8l-13.6,42.8c-0.6,2-2.6,3.4-4.7,3.4h-14.8c-2.1,0-4-1.4-4.7-3.4L584.6,156.6z"/>
		<path class="st2" d="M173.8,110.9l-40.5,0.2c-2.7,0-4.8,2.4-4.7,5.1l0,2.7c0,2.4,1.6,4.2,3.7,4.8l18.4,1.3
			c0.1,20.2,0.3,48.6,0.4,64.3c0.1,10.6-5.5,17.8-14,17.9c-3.7,0-6.9-1.5-8-3.7c2.1-0.8,3.4-4.5,3.4-9.1c0-7.7-5.1-12.7-12.6-12.7
			s-12.4,5.1-12.4,12.8c0.1,16.5,11.1,26,29.6,25.8c19.7-0.1,32.6-13,32.5-32.3l-0.4-63.2l5.6-1.4c2.4-0.5,4-2.7,4-4.8l0-2.7
			C178.9,113.3,176.5,110.9,173.8,110.9z"/>
		<g>
			<path class="st2" d="M392.9,143.1h-16.2c-3,0-5.3,2.3-5.3,4.9v2.6c0,2.6,1.9,4.5,4.1,4.9l4.1,1.1v74.8c0,7.5-3.8,12.4-9,12.4
				c-1.9,0-3.8-0.4-4.9-1.1c0.4-1.9,0.8-4.1,0.8-5.6c0-6.4-4.1-10.5-10.5-10.5c-6,0-10.1,4.5-10.1,10.9c0,12.8,8.6,19.2,25.2,19.2
				c17.7,0,26.7-8.6,26.7-25.2V148C397.8,145.4,395.5,143.1,392.9,143.1z M388,130c6.4,0,11.7-5.6,11.7-12c0-6.4-5.3-11.7-11.7-11.7
				c-6.8,0-12,5.3-12,11.7C376,124.4,381.2,130,388,130z"/>
		</g>
	</g>
</g>
<rect class="st1" width="813.5" height="425.2"/>
</svg>
