<?xml version="1.0" encoding="utf-8"?>
<!-- Generator: Adobe Illustrator 21.0.0, SVG Export Plug-In . SVG Version: 6.00 Build 0)  -->
<svg version="1.1" id="Layer_1" xmlns="http://www.w3.org/2000/svg" xmlns:xlink="http://www.w3.org/1999/xlink" x="0px" y="0px"
	 viewBox="0 0 893.1 431.9" style="enable-background:new 0 0 893.1 431.9;" xml:space="preserve">
<style type="text/css">
	.st0{fill:#423E40;}
	.st1{fill:none;}
	.st2{fill:#FFFFFF;}
	.st3{fill:none;stroke:#423E40;stroke-miterlimit:10;}
</style>
<g>
	<g>
		<g>
			<path class="st2" d="M400.4,322.9v5c0,5.7-3.3,9.4-9.8,9.4c-1,0-2.4-0.1-3.6-0.4l-3.8-8.8l-2.5-0.5v-3.1h6l3.5,9.5h0.5
				c3.5,0,5-2.4,5-6.2V323c0-3.7-1.8-5.5-5.3-5.5c-3.2,0-4.4,1.5-5,2.5h-4.2v-2.6c1.5-1.3,4.6-3.2,9.4-3.2
				C396.9,314.2,400.4,317.5,400.4,322.9z"/>
			<path class="st2" d="M391.1,308.8v-2.5h4.8v1.4c0,0.5,0.2,0.7,0.8,0.7h10.8v3.3h-13.1C392.6,311.7,391.1,310.9,391.1,308.8z"/>
			<path class="st2" d="M427.4,333.7v3.1h-6.9V334c-0.9,1.1-3.3,3.3-7.2,3.3c-4,0-7.9-2.4-7.9-8.4v-10.7l-2.1-0.5v-3.1h6.9v14.2
				c0,3.9,1.9,5.2,4.2,5.2c3,0,5.1-2.3,6.2-4v-11.8l-2.1-0.5v-3.1h6.9v18.6L427.4,333.7z"/>
			<path class="st2" d="M430.7,333.7l2.1-0.5v-15.1l-2.1-0.5v-3.1h6.9v2.6c0.9-1.1,3.2-3.1,7-3.1c4.3,0,8.1,2.4,8.1,8.6v10.5
				l2.1,0.5v3.1h-9v-3.1l2.1-0.5v-10.4c0-4.1-2.2-5.4-4.6-5.4c-2.8,0-4.8,1.9-5.8,3.8v12l2.1,0.5v3.1h-9V333.7z"/>
			<path class="st2" d="M458.7,334.3v-2.7h4.7c0.6,1.1,1.5,2.4,4.4,2.4c2.6,0,4.3-1.1,4.3-2.9c0-1.7-1.3-2.6-5.9-4.4
				c-5.3-2-7.5-3.9-7.5-7c0-3.6,3.2-5.5,8.5-5.5c5,0,7.7,1.8,9,2.9v2.8h-4.3c-0.4-1-1.5-2.4-4.6-2.4c-2.3,0-3.7,0.8-3.7,2.2
				c0,1.5,1.7,2.5,6.6,4.4c4.3,1.7,6.7,3.3,6.7,6.8c0,4.5-4.1,6.4-9,6.4C462.7,337.3,459.7,335.1,458.7,334.3z"/>
			<path class="st2" d="M468.5,310c0-2.1,1.4-3,3.3-3h9.9v3.3h-8.1c-0.6,0-0.8,0.3-0.8,0.8v1.4h-4.4V310z"/>
			<path class="st2" d="M487.5,333.3l2.1,0.5v3.1h-9v-3.1l2.1-0.5v-15.1l-2.1-0.5v-3.1h6.9V333.3z"/>
			<path class="st2" d="M511.4,322.9v5c0,5.7-3.3,9.4-9.8,9.4c-1,0-2.4-0.1-3.6-0.4l-3.8-8.8l-2.5-0.5v-3.1h6l3.5,9.5h0.5
				c3.5,0,5-2.4,5-6.2V323c0-3.7-1.8-5.5-5.3-5.5c-3.2,0-4.4,1.5-5,2.5h-4.2v-2.6c1.5-1.3,4.6-3.2,9.4-3.2
				C508,314.2,511.4,317.5,511.4,322.9z"/>
			<path class="st2" d="M503.2,311.4v-1.5l0.8-1.5h-2.2v-3.3h6.2v2.4l-0.7,1.2c0.6,0.2,1.3,0.2,1.9,0.2c2.1,0,3.8-0.6,5-1.6h3.5v2.6
				c-1.5,1-4.1,2.2-8.4,2.2C507.4,312.1,505,311.9,503.2,311.4z"/>
			<path class="st2" d="M533.4,333.7v3.1h-9v-3.1l2.1-0.5V322c0-3.2-1.2-4.6-4-4.6c-3,0-3.8,1.6-4.1,2.5h-4.3v-2.6
				c1.2-1.2,3.7-3.2,8.5-3.2c5.7,0,8.6,2.8,8.6,7.7v11.4L533.4,333.7z"/>
			<path class="st2" d="M561.3,333.7v3.1h-9v-3.1l2.1-0.5v-10.1c0-3.7-1.7-5.7-5.4-5.7c-3.7,0-5.5,2-5.5,5.7v9.1l4.3-4.7l-2.1-0.5
				V324h6.1v4l-8.5,8.8h-6.6v-3.1l2.1-0.5v-10.1c0-5.6,3.7-9,10.2-9c6.6,0,10.2,3.4,10.2,9v10.1L561.3,333.7z"/>
			<path class="st2" d="M585.1,322.7v5.9c0,5.7-4.4,8.6-10.5,8.6s-10.2-3-10.2-7.7v-1.8c0-2.8,1.9-4.5,5.5-4.5c1.4,0,3,0.2,4.5,0.6
				v2.9h-3.3c-0.3-0.2-0.6-0.2-0.9-0.2c-0.8,0-1.1,0.4-1.1,1.4v1.5c0,2.6,1.7,4.6,5.5,4.6c3.8,0,5.7-2,5.7-5.2v-6
				c0-3.4-1.9-5.3-5.7-5.3c-3.5,0-4.8,1.6-5.4,2.5h-4.3v-2.6c1.4-1.1,4.7-3.2,9.8-3.2C581.2,314.2,585.1,317.3,585.1,322.7z"/>
			<path class="st2" d="M588.9,333.7l2.1-0.5v-15.1l-2.1-0.5v-3.1h6.9v2.6c0.9-1.1,3.2-3.1,7-3.1c4.3,0,8.1,2.4,8.1,8.6v10.5
				l2.1,0.5v3.1h-9v-3.1l2.1-0.5v-10.4c0-4.1-2.2-5.4-4.6-5.4c-2.8,0-4.8,1.9-5.8,3.8v12l2.1,0.5v3.1h-9V333.7z"/>
			<path class="st2" d="M616.3,333.7l2.1-0.5v-10.1c0-5.7,3.7-9,10.2-9c6.6,0,10.2,3.3,10.2,9v10.1l2.1,0.5v3.1h-9v-3.1l2.1-0.5
				v-10.1c0-3.7-1.7-5.7-5.4-5.7c-3.7,0-5.5,2-5.5,5.7v3.4c0.5-1.2,2-2.8,4.3-2.8h3.6v5.4h-3.4l-0.8-2.1c-1.7,0-3.4,1.1-3.7,3.2v3.1
				l2.1,0.5v3.1h-9V333.7z"/>
			<path class="st2" d="M665.1,322.7v5.9c0,5.7-4.4,8.6-10.5,8.6c-6,0-10.2-3-10.2-7.7v-1.8c0-2.8,1.9-4.5,5.5-4.5
				c1.4,0,3,0.2,4.5,0.6v2.9h-3.3c-0.3-0.2-0.6-0.2-0.9-0.2c-0.8,0-1.1,0.4-1.1,1.4v1.5c0,2.6,1.7,4.6,5.5,4.6c3.8,0,5.7-2,5.7-5.2
				v-6c0-3.4-1.9-5.3-5.7-5.3c-3.5,0-4.8,1.6-5.4,2.5H645v-2.6c1.4-1.1,4.7-3.2,9.8-3.2C661.3,314.2,665.1,317.3,665.1,322.7z"/>
			<path class="st2" d="M690.9,328.9c0,5.9-3.8,8.4-8.2,8.4c-3.7,0-5.7-1.7-6.8-3.1v2.6H669v-3.1l2.1-0.5v-15.1l-2.1-0.5v-3.1h6.9
				v15.6c1,1.8,3,3.8,5.8,3.8c2.3,0,4.4-1.3,4.4-5.2v-10.6l-2.1-0.5v-3.1h6.9V328.9z"/>
		</g>
		<g>
			<path class="st2" d="M438.7,250.4c0-11.7,8.5-16.8,20.9-17.7l17.2-1.1v-2c0-7.5-3.5-10.9-11.2-10.9c-6,0-8.9,2.1-10.4,4.2
				c-0.7,1-2,1.6-3.2,1.6h-6.3c-2.1,0-3.7-1.7-3.7-3.7v-2c0-1.3,0.6-2.4,1.7-3.1c4.5-3,12-6.4,22.5-6.4c15,0,24.4,6.8,24.4,20.4
				v27.9l3.2,0.7c1.7,0.4,2.9,1.9,2.9,3.6v2.1c0,2.1-1.7,3.7-3.7,3.7h-12.4c-2.1,0-3.7-1.7-3.7-3.7V261c-3.5,4.3-9.4,7.9-17.8,7.9
				C447.7,269,438.7,262.4,438.7,250.4z M476.8,244.9v-3.7l-14.4,0.8c-6.7,0.5-9.6,3.2-9.6,8.4c0,6.4,4.3,9.1,9.9,9.1
				C469.8,259.4,476.8,254.9,476.8,244.9z"/>
			<path class="st2" d="M506.8,258.1l3.2-0.7v-36.7l-3.2-0.7c-1.7-0.4-2.9-1.9-2.9-3.6v-2.1c0-2.1,1.7-3.7,3.7-3.7H520
				c2.1,0,3.7,1.7,3.7,3.7v2.2c2-2,8.2-7.3,18-7.3c11.2,0,21.4,6.9,21.4,21.9v26.4l3.2,0.7c1.7,0.4,2.9,1.9,2.9,3.6v2.1
				c0,2.1-1.7,3.7-3.7,3.7h-18.5c-2.1,0-3.7-1.7-3.7-3.7v-2.1c0-1.7,1.2-3.3,2.9-3.6l3.2-0.7v-26.1c0-8.8-5.2-12.7-11.6-12.7
				c-6,0-11.3,3.4-14.2,7.8v31l3.2,0.7c1.7,0.4,2.9,1.9,2.9,3.6v2.1c0,2.1-1.7,3.7-3.7,3.7h-18.5c-2.1,0-3.7-1.7-3.7-3.7v-2.1
				C503.9,260,505.1,258.5,506.8,258.1z"/>
			<path class="st2" d="M607.6,250.4c0-11.7,8.5-16.8,20.9-17.7l17.2-1.1v-2c0-7.5-3.5-10.9-11.2-10.9c-6,0-8.9,2.1-10.4,4.2
				c-0.7,1-2,1.6-3.2,1.6h-6.3c-2.1,0-3.7-1.7-3.7-3.7v-2c0-1.3,0.6-2.4,1.7-3.1c4.5-3,12-6.4,22.5-6.4c15,0,24.4,6.8,24.4,20.4
				v27.9l3.2,0.7c1.7,0.4,2.9,1.9,2.9,3.6v2.1c0,2.1-1.7,3.7-3.7,3.7h-12.4c-2.1,0-3.7-1.7-3.7-3.7V261c-3.5,4.3-9.4,7.9-17.8,7.9
				C616.5,269,607.6,262.4,607.6,250.4z M645.7,244.9v-3.7l-14.4,0.8c-6.7,0.5-9.6,3.2-9.6,8.4c0,6.4,4.3,9.1,9.9,9.1
				C638.6,259.4,645.7,254.9,645.7,244.9z"/>
			<path class="st2" d="M671.8,244.4v-10.7c0-15.1,10.2-24.6,28.2-24.6c17.9,0,28.1,9.5,28.1,24.6v10.7c0,15.1-10.2,24.6-28.1,24.6
				C682.1,269,671.8,259.4,671.8,244.4z M714.5,244.1v-10.2c0-9.9-4.5-15.3-14.4-15.3c-10,0-14.5,5.4-14.5,15.3v10.2
				c0,9.9,4.5,15.3,14.5,15.3C710,259.4,714.5,254,714.5,244.1z"/>
			<path class="st2" d="M739.3,220.6l-2.6-0.7c-1.7-0.4-2.8-1.9-2.8-3.6v-2.2c0-2.1,1.7-3.7,3.7-3.7h19.2c2.1,0,3.7,1.7,3.7,3.7v2.1
				c0,1.8-1.2,3.3-3,3.7l-3.7,0.8l10,34.8l11.3-34.8l-3.2-0.7c-1.7-0.4-2.9-1.9-2.9-3.6v-2.1c0-2.1,1.7-3.7,3.7-3.7h19.5
				c2.1,0,3.7,1.7,3.7,3.7v2.1c0,1.8-1.2,3.3-2.9,3.6l-3.3,0.7l11.3,34.8l10-34.8l-3.7-0.8c-1.7-0.4-3-1.9-3-3.7v-2.1
				c0-2.1,1.7-3.7,3.7-3.7h19.2c2.1,0,3.7,1.7,3.7,3.7v2.2c0,1.7-1.2,3.2-2.8,3.6l-2.6,0.7L811,265c-0.5,1.5-1.9,2.6-3.5,2.6h-11.2
				c-1.6,0-3.1-1.1-3.6-2.6l-10.2-32.4L772.2,265c-0.5,1.6-1.9,2.6-3.6,2.6h-11.2c-1.6,0-3-1-3.5-2.6L739.3,220.6z"/>
			<path class="st2" d="M428.2,186l-30.6,0.1c-2,0-3.6,1.8-3.6,3.8l0,2c0,1.8,1.2,3.2,2.8,3.6l14,1c0.1,15.3,0.2,36.8,0.3,48.7
				c0.1,8-4.1,13.5-10.6,13.5c-2.8,0-5.2-1.2-6.1-2.8c1.6-0.6,2.6-3.4,2.6-6.9c0-5.8-3.9-9.6-9.5-9.6s-9.4,3.9-9.4,9.7
				c0.1,12.5,8.4,19.7,22.4,19.6c14.9-0.1,24.7-9.8,24.6-24.5l-0.3-47.9l4.2-1c1.8-0.4,3-2,3-3.6l0-2
				C432.1,187.8,430.2,186,428.2,186z"/>
			<g>
				<path class="st2" d="M594.1,210.4h-12.2c-2.3,0-4,1.7-4,3.7v2c0,2,1.4,3.4,3.1,3.7l3.1,0.9v56.7c0,5.7-2.8,9.4-6.8,9.4
					c-1.4,0-2.8-0.3-3.7-0.9c0.3-1.4,0.6-3.1,0.6-4.3c0-4.8-3.1-8-8-8c-4.6,0-7.7,3.4-7.7,8.3c0,9.7,6.5,14.5,19.1,14.5
					c13.4,0,20.2-6.5,20.2-19.1v-63.2C597.8,212.1,596.1,210.4,594.1,210.4z M590.4,200.5c4.8,0,8.8-4.3,8.8-9.1
					c0-4.8-4-8.8-8.8-8.8c-5.1,0-9.1,4-9.1,8.8C581.3,196.2,585.3,200.5,590.4,200.5z"/>
			</g>
		</g>
	</g>
	<g>
		<path class="st2" d="M240.3,310.7c6.7,7,13.1,13.3,20.2,13.3c7.3,0,13.3-6,13.3-13.3s-6-13.3-13.3-13.3
			C253.4,297.4,247,303.6,240.3,310.7z M260.5,329.2c-10.1,0-18-8.5-25.8-16.7c-7.3-7.8-14.2-15.1-22-15.1c-7.3,0-13.3,6-13.3,13.3
			s6,13.3,13.3,13.3c4.6,0,9.2-2.5,15.1-8c1.1-1,2.7-1,3.8,0.1c1,1.1,1,2.7-0.1,3.8c-4.7,4.4-11,9.5-18.7,9.5
			c-10.2,0-18.6-8.3-18.6-18.6c0-10.2,8.3-18.6,18.6-18.6c9.3,0,16.8,7.2,23.9,14.7c7.1-7.5,14.6-14.7,23.9-14.7
			c10.2,0,18.6,8.3,18.6,18.6C279.1,320.9,270.8,329.2,260.5,329.2z"/>
		<g>
			<path class="st2" d="M130.7,176.4c1.1-0.3,2.3-0.6,3.4-0.7c1.5,2.4,1.9,4.5,2.1,5.9c0.4,4.7-2,9.2-6,11c-2.5,1.1-4.3,0.3-5.4-0.6
				c-2.1-1.7-3.2-5-2.6-7.9C122.9,180.5,125.9,177.8,130.7,176.4z M155.9,193.3c0.1,0,0.2-0.1,0.2-0.1c0,1.5-0.1,3.1-0.4,4.7
				c-0.6,3.4-2,5.4-3.7,5.4c-1.5,0-3-1.5-3.3-3.2C148.4,197.4,151.1,194.8,155.9,193.3z M129.7,172.9c-8.4,2.3-10.6,7.6-11.2,10.5
				c-0.8,3.8,0.4,7.9,2.9,10.5c0.3,0.3,0.7,0.7,1,0.9c2.7,2.1,6,2.5,9.2,1.1c5.4-2.5,8.7-8.3,8.2-14.7c-0.1-1.4-0.5-3.5-1.7-5.9
				c4.8,0.1,9.1,1.7,12.3,4.6c2.7,2.5,4.5,5.7,5.3,9.5c-0.3,0.1-0.6,0.2-0.9,0.3c-9.9,3.1-9.9,9-9.6,10.8c0.5,3.5,3.5,6.3,6.8,6.4
				c1.4,0,6-0.5,7.4-8.4c0.4-2,0.5-4.1,0.4-6c2.5-0.2,4.8,0.3,6.8,1.5c6.3,3.7,8.1,13,8.1,13.1c0.2,1,1.2,1.6,2.1,1.4
				c1-0.2,1.6-1.1,1.5-2.1c-0.1-0.4-2.2-11-9.8-15.6c-2.7-1.6-5.8-2.3-9.1-2c-0.9-4.5-3.1-8.5-6.4-11.5c-4.5-4.1-10.5-6-17.1-5.5
				c-3.2-4-8.9-8.1-19-10.7c-1-0.3-2,0.4-2.2,1.3c-0.3,1,0.3,2,1.3,2.2c7.8,2,12.6,4.8,15.5,7.7
				C130.9,172.6,130.3,172.7,129.7,172.9z"/>
			<path class="st2" d="M168,163.8l-4.3-4.3l4.3-4.3c0.7-0.7,0.7-1.9,0-2.6c-0.7-0.7-1.9-0.7-2.6,0l-4.3,4.3l-4.3-4.3
				c-0.7-0.7-1.9-0.7-2.6,0c-0.7,0.7-0.7,1.9,0,2.6l4.3,4.3l-4.3,4.3c-0.7,0.7-0.7,1.9,0,2.6c0.4,0.4,0.8,0.5,1.3,0.5
				c0.5,0,0.9-0.2,1.3-0.5l4.3-4.3l4.3,4.3c0.4,0.4,0.8,0.5,1.3,0.5c0.5,0,0.9-0.2,1.3-0.5C168.7,165.7,168.7,164.5,168,163.8z"/>
			<path class="st2" d="M107.2,206.4c-4,1.6-6.3,2.4-8.7,0c-0.7-0.7-1.9-0.7-2.6,0c-0.7,0.7-0.7,1.9,0,2.6c1.9,1.9,3.9,2.6,5.9,2.6
				c2.3,0,4.6-0.9,6.7-1.8c4.1-1.7,8.1-3.3,12.8,0.4c0.8,0.6,2,0.5,2.6-0.3c0.6-0.8,0.5-1.9-0.3-2.6
				C117.2,202.4,111.6,204.6,107.2,206.4z"/>
			<path class="st2" d="M184.4,147.9c-0.2-0.4-0.3-0.9-0.3-1.3c0.1-0.7,0.5-1.5,1.1-2.2c1.9-2,4.7-2.4,7.4-2.2
				c0,0.8-0.2,1.7-0.5,2.5c-1,3.1-2.7,4.9-4.6,5C186.3,149.9,184.9,149.1,184.4,147.9z M195.6,145.9c0.3-1,0.5-2,0.6-3
				c3,0.8,5.3,2,5.4,2c0.9,0.5,2,0.1,2.5-0.8c0.1-0.2,0.2-0.5,0.2-0.7c0.1-0.7-0.3-1.4-1-1.8c-0.3-0.1-3.3-1.7-7.2-2.6
				c-1.4-7.3-8.7-12.7-13.3-14.8c-0.9-0.4-2,0-2.4,0.9c-0.4,0.9,0,2,0.9,2.4c0.1,0,8.8,4.1,10.9,10.9c-3.4-0.2-7,0.5-9.6,3.3
				c-2.1,2.3-2.7,5.1-1.5,7.6c1.2,2.5,3.9,4.1,6.7,3.9C189.5,153.3,193.6,152.4,195.6,145.9z"/>
			<path class="st2" d="M230.6,176.2c-0.5,1.3-1.3,2.6-3,1.8c-1.6-0.7-1.2-2.1-0.8-3.4c0.5-1.3,1.1-2.7,1.6-4
				c2.5-7.9,0.3-14.6-5.2-20.4c-3.8-4-8.1-7.5-11.6-11.9c-3.5-4.4-4.6-9.3-2.9-14.8c0.3-1,0.7-1.9,1.2-2.8c0.6-0.9,1.5-1.1,2.5-0.6
				c0.9,0.4,1.2,1.2,1,2.2c-0.4,1.3-0.9,2.6-1.2,3.9c-0.8,3.8,0.5,7.1,2.9,10c3.2,3.9,7.1,7.1,10.6,10.7
				C234,155.7,235.6,165.4,230.6,176.2z"/>
			<path class="st2" d="M282.1,191.6c1.4-1.5,4.1-2.6,6.9-3.4c3.8-1,7.6-1.7,11.3-2.7c3.1-0.8,5.9-2.1,8.3-4.4c1-1,2.3-1.5,3.4-0.2
				c1.1,1.3,0.2,2.3-0.8,3.3c-3.6,3.3-8,4.8-12.5,5.9c-2.7,0.7-5.5,1.2-8.2,1.8c-6,1.4-8.6,4.5-9.1,10.7c-0.1,0.8-0.1,1.6-0.2,2.4
				c-0.2,1.1-0.8,1.8-2,1.8c-1.2,0-1.9-0.8-1.9-1.9C277.2,200.3,277.9,195.8,282.1,191.6z"/>
			<path class="st2" d="M183,163.7L183,163.7c1.5-1.6,4-1.5,5.6,0c3.5,3.7-1.9,9.1-5.6,5.6C181.4,167.7,181.4,165.2,183,163.7z"/>
			<path class="st2" d="M219.7,208.2c1.6,1.7,1.6,3.9-0.1,5.5c-1.6,1.6-4.1,1.5-5.6-0.1c-1.4-1.6-1.4-4,0.1-5.5
				C215.6,206.6,218.1,206.6,219.7,208.2z"/>
			<path class="st2" d="M319.6,205.7c-1.5,1.5-4.2,1.4-5.7-0.1c-1.5-1.6-1.5-4.1,0.1-5.6c1.5-1.5,4.2-1.5,5.6,0
				C321.2,201.6,321.1,204.3,319.6,205.7z"/>
			<path class="st2" d="M201.5,193.5c2.5,1.2,4.7,3,5.2,5.7c0.3,1.6-0.1,2.8-1.1,3.5c-1.1,0.7-2.6,0.7-3.7-0.1
				c-1.6-1.1-2.1-3.5-1.3-6.7C200.9,195.1,201.2,194.2,201.5,193.5z M200.2,189c-3.8-1.2-7.2-1.5-7.5-1.5c-1-0.1-1.9,0.7-1.9,1.7
				c0,1,0.7,1.9,1.7,1.9c0.1,0,2.7,0.2,5.6,1c-0.4,0.9-0.7,1.8-1,2.9c-1.6,6.6,1.4,9.6,2.8,10.5c2.4,1.6,5.5,1.6,7.8,0.1
				c2.3-1.5,3.3-4.2,2.6-7.3c-0.8-3.8-3.5-6.2-6.6-7.8c5.2-4.7,14.5-3.7,15-3.7c1,0.1,1.9-0.6,2-1.6c0-0.1,0-0.1,0-0.2
				c0-0.9-0.7-1.7-1.6-1.8C214.1,182.7,205.1,183.5,200.2,189z"/>
			<path class="st2" d="M266.7,160.7l-4.3-4.3l4.3-4.3c0.7-0.7,0.7-1.9,0-2.6c-0.7-0.7-1.9-0.7-2.6,0l-4.3,4.3l-4.3-4.3
				c-0.7-0.7-1.9-0.7-2.6,0c-0.7,0.7-0.7,1.9,0,2.6l4.3,4.3l-4.3,4.3c-0.7,0.7-0.7,1.9,0,2.6c0.4,0.4,0.8,0.5,1.3,0.5
				c0.5,0,0.9-0.2,1.3-0.5l4.3-4.3l4.3,4.3c0.4,0.4,0.8,0.5,1.3,0.5c0.5,0,0.9-0.2,1.3-0.5C267.4,162.6,267.4,161.4,266.7,160.7z"/>
			<path class="st2" d="M235.1,106.4c2.4-0.6,4.3-0.2,5.2,1c0.6,0.8,0.6,2,0,2.9c-0.5,0.8-1.5,1.1-2.7,0.8c-2.1-0.4-3.5-2.1-4.4-4.1
				C233.7,106.8,234.4,106.6,235.1,106.4z M225.2,120.8c0.1,0.7,0.7,1.3,1.4,1.3c0.1,0,0.1,0,0.2,0c0.8-0.1,1.3-0.8,1.3-1.6
				c0-0.4-0.8-7.6,2.9-11.6c1.2,2.4,3.2,4.5,6.1,5.1c2.4,0.5,4.5-0.2,5.7-2.1c1.2-1.8,1.2-4.3-0.1-6.1c-0.7-1.1-3-3.4-8.2-2.2
				c-0.8,0.2-1.6,0.4-2.2,0.8c-0.7-2.3-0.8-4.3-0.8-4.4c0-0.8-0.8-1.4-1.5-1.3c-0.8,0-1.4,0.7-1.3,1.5c0,0.2,0.2,2.9,1.2,5.8
				C225.4,109.9,224.7,116.9,225.2,120.8z"/>
			<path class="st2" d="M249,137.3l-0.2-2.5c-0.3-4.9-0.6-9.9-0.2-14.4c0.5-5.4,1.9-9.3,4.4-11.9c1.7-1.8,4.1-2.9,6.6-2.9
				c2.5,0,4.9,0.9,6.8,2.7c2.2,2,3.2,4.2,3.1,7c0.6,0,1.2,0,1.7,0c2,0.2,3.8,1.1,5.4,2.6c1.9,1.8,3,4.1,3.1,6.6
				c0.1,2.6-0.7,5-2.5,6.8c-2.5,2.7-6.2,4.3-11.6,5.2c-4.4,0.7-9.5,0.7-14.3,0.8L249,137.3z M261.6,109.3c-0.6-0.2-1.3-0.3-1.9-0.3
				c-1.6,0-3.1,0.7-4.2,1.8c-2,2.1-3.1,5.3-3.5,9.9c-0.4,4-0.1,8.7,0.1,13.2c4.5,0,9.2-0.1,13.2-0.7c4.6-0.7,7.7-2,9.7-4.1
				c1.1-1.2,1.6-2.7,1.6-4.3c-0.1-1.7-0.8-3.2-2.1-4.4c-1.2-1.1-2.2-1.6-3.5-1.8c-0.8-0.1-1.7,0-2.8,0.3l-2.6,0.7l0.5-2.6
				c0.5-2.8,0.1-4.4-1.9-6.2C263.5,110.1,262.6,109.6,261.6,109.3z"/>
			<path class="st2" d="M139.3,154l-2.1-0.9c-3.6-1.6-7.3-3.3-10.3-5.3c-3.7-2.4-6-5-7-7.8c-0.7-2-0.5-4.2,0.5-6.1
				c1-1.9,2.6-3.3,4.6-4c2.3-0.8,4.2-0.7,6.1,0.3c0.2-0.3,0.3-0.6,0.5-0.9c0.9-1.4,2.3-2.4,4.1-3c2-0.7,4.2-0.6,6.1,0.3
				c2,0.9,3.4,2.5,4.1,4.5c1,2.9,0.8,6.2-0.7,10.4c-1.2,3.4-3,7-4.8,10.5L139.3,154z M127.9,132.6c-0.5,0-1.1,0.1-1.8,0.3
				c-1.2,0.4-2.2,1.3-2.8,2.4c-0.6,1.1-0.7,2.3-0.3,3.5c0.7,2.1,2.6,4.1,5.6,6.1c2.7,1.7,5.9,3.3,9.1,4.7c1.6-3.2,3.3-6.4,4.3-9.4
				c1.2-3.5,1.4-6.2,0.7-8.3c-0.4-1.1-1.2-2.1-2.3-2.6c-1.1-0.5-2.4-0.6-3.7-0.2c-1.1,0.4-1.9,0.9-2.4,1.7c-0.3,0.5-0.6,1.2-0.8,2
				l-0.6,2.6l-2.1-1.7C129.8,133.1,128.9,132.6,127.9,132.6z"/>
			<path class="st2" d="M161.8,116.4c-0.6,0-1.3-0.2-1.8-0.5c-1-0.7-1.6-1.9-1.4-3.1l0.5-4.1l-3.1-2.7c-0.9-0.8-1.3-2.1-1-3.3
				c0.3-1.2,1.3-2.1,2.5-2.3l4-0.8l1.7-3.8c0.5-1.1,1.6-1.9,2.8-1.9c1.3-0.1,2.4,0.6,3,1.7l2,3.6l4.1,0.4c1.2,0.1,2.3,0.9,2.7,2.1
				c0.4,1.2,0.2,2.5-0.7,3.4l-2.8,3l0.9,4c0.3,1.2-0.2,2.5-1.2,3.2c-1,0.8-2.3,0.9-3.4,0.4l-3.7-1.8l-3.6,2.1
				C162.9,116.2,162.3,116.4,161.8,116.4z M166.2,97l-2.3,5.4l-5.8,1.1l4.4,3.8l-0.7,5.8l5-3l5.3,2.5l-1.3-5.7l4-4.2l-5.7-0.5
				L166.2,97z M174.8,102.7l1.2,1.1L174.8,102.7C174.8,102.6,174.8,102.6,174.8,102.7z"/>
			<path class="st2" d="M259.5,204.9c-1.1,0-2.1-0.4-2.8-1.2l-4.2-4.5l-6.1,0.9c-1.5,0.2-2.9-0.4-3.8-1.6c-0.9-1.2-0.9-2.8-0.2-4.1
				l3-5.4l-2.8-5.5c-0.7-1.3-0.5-2.9,0.4-4.1s2.4-1.8,3.9-1.5l6.1,1.2l4.4-4.3c1.1-1.1,2.6-1.4,4-0.9c1.4,0.5,2.4,1.7,2.6,3.2
				l0.8,6.1l5.5,2.8c1.3,0.7,2.2,2.1,2.1,3.6c0,1.5-0.9,2.8-2.3,3.5l-0.7-1.5l0.7,1.5l-5.6,2.6l-1,6.1c-0.2,1.5-1.3,2.7-2.7,3.1
				C260.3,204.8,259.9,204.9,259.5,204.9z M253.7,195.6l5.4,5.8c0.2,0.2,0.5,0.2,0.6,0.2c0.1,0,0.4-0.2,0.4-0.5l1.3-7.8l7.2-3.4
				c0.3-0.1,0.3-0.4,0.3-0.5c0-0.1,0-0.4-0.3-0.5l-7-3.6l-1-7.9c0-0.3-0.3-0.4-0.4-0.5c-0.1,0-0.4-0.1-0.6,0.1l-5.6,5.6l-7.8-1.5
				c-0.3-0.1-0.5,0.1-0.6,0.2c-0.1,0.1-0.2,0.3-0.1,0.6l3.6,7.1l-3.8,6.9c-0.2,0.3,0,0.5,0,0.6c0.1,0.1,0.3,0.3,0.6,0.2L253.7,195.6
				z"/>
			<g>
				<path class="st2" d="M209.3,95.9c-0.2,0-0.4-0.1-0.6-0.2L193,82.6c-0.3-0.2-0.4-0.6-0.3-1l2.4-6.8c0.1-0.3,0.4-0.5,0.7-0.6
					l19.6-3.3c0.3-0.1,0.6,0.1,0.8,0.3l4.5,5.7c0.2,0.3,0.2,0.7,0.1,1l-10.7,17.5c-0.1,0.2-0.4,0.4-0.6,0.4
					C209.4,95.9,209.4,95.9,209.3,95.9z M194.5,81.7l14.6,12l9.9-16.1l-3.8-4.8l-18.6,3.1L194.5,81.7z"/>
				<path class="st2" d="M193.5,82.8c-0.4,0-0.8-0.3-0.9-0.7c-0.1-0.5,0.2-0.9,0.7-1l26.5-4.4c0.5-0.1,0.9,0.2,1,0.7
					c0.1,0.5-0.2,0.9-0.7,1l-26.5,4.4C193.6,82.8,193.6,82.8,193.5,82.8z"/>
				<path class="st2" d="M209.3,95.9c-0.3,0-0.6-0.1-0.7-0.4l-13.4-19.9c-0.3-0.4-0.2-0.9,0.2-1.2c0.4-0.3,0.9-0.2,1.2,0.2L210,94.5
					c0.3,0.4,0.2,0.9-0.2,1.2C209.7,95.9,209.5,95.9,209.3,95.9z"/>
				<path class="st2" d="M209.3,95.9c-0.1,0-0.1,0-0.2,0c-0.5-0.1-0.7-0.6-0.6-1.1l6.2-23.2c0.1-0.5,0.6-0.7,1.1-0.6
					c0.5,0.1,0.7,0.6,0.6,1.1l-6.2,23.2C210,95.6,209.7,95.9,209.3,95.9z"/>
				<path class="st2" d="M199.8,81.8c-0.2,0-0.4-0.1-0.5-0.2c-0.4-0.3-0.4-0.8-0.1-1.2L205,73c0.3-0.4,0.8-0.4,1.1-0.2l8,5.1
					c0.4,0.3,0.5,0.8,0.3,1.2c-0.3,0.4-0.8,0.5-1.2,0.3l-7.3-4.7l-5.4,6.8C200.3,81.7,200.1,81.8,199.8,81.8z"/>
			</g>
			<g>
				<path class="st2" d="M102.2,188.7C102.2,188.7,102.2,188.7,102.2,188.7l-18.5-0.9c-0.4,0-0.7-0.3-0.8-0.6l-2-6.2
					c-0.1-0.3,0-0.6,0.2-0.9l12.4-13c0.2-0.2,0.6-0.3,0.9-0.2l6.3,1.7c0.4,0.1,0.6,0.4,0.6,0.8l1.8,18.4c0,0.3-0.1,0.5-0.2,0.7
					C102.7,188.6,102.5,188.7,102.2,188.7z M84.4,186.1l16.9,0.8l-1.6-16.8l-5.2-1.4L82.7,181L84.4,186.1z"/>
				<path class="st2" d="M83.7,187.8c-0.2,0-0.4-0.1-0.6-0.2c-0.3-0.3-0.4-0.9,0-1.2l16.8-17.6c0.3-0.4,0.9-0.4,1.2,0
					c0.3,0.3,0.4,0.9,0,1.2l-16.8,17.6C84.2,187.8,83.9,187.8,83.7,187.8z"/>
				<path class="st2" d="M102.2,188.7c-0.1,0-0.2,0-0.3,0l-20.5-7.1c-0.5-0.2-0.7-0.6-0.5-1.1c0.2-0.5,0.6-0.7,1.1-0.5l20.5,7.1
					c0.5,0.2,0.7,0.6,0.5,1.1C102.9,188.5,102.6,188.7,102.2,188.7z"/>
				<path class="st2" d="M102.2,188.7c-0.3,0-0.7-0.2-0.8-0.5L93.3,168c-0.2-0.4,0-1,0.5-1.1c0.4-0.2,1,0,1.1,0.5l8.1,20.1
					c0.2,0.4,0,1-0.5,1.1C102.4,188.7,102.3,188.7,102.2,188.7z"/>
				<path class="st2" d="M87.7,183.7C87.7,183.7,87.7,183.7,87.7,183.7c-0.5,0-0.9-0.4-0.9-0.9l0.3-8.6c0-0.4,0.4-0.8,0.8-0.8
					l8.6-0.7c0.6,0,0.9,0.3,0.9,0.8c0,0.5-0.3,0.9-0.8,0.9l-7.8,0.6l-0.2,7.8C88.5,183.3,88.1,183.7,87.7,183.7z"/>
			</g>
			<g>
				<path class="st2" d="M286.4,170.4c-0.1,0-0.2,0-0.3-0.1c-0.2-0.1-0.4-0.3-0.5-0.5l-5.7-15.9c-0.1-0.3,0-0.7,0.3-1l4.6-3.8
					c0.2-0.2,0.6-0.3,0.9-0.1l15.3,5.9c0.3,0.1,0.5,0.4,0.5,0.7l0.8,5.9c0,0.4-0.1,0.7-0.5,0.9l-14.9,7.9
					C286.7,170.4,286.5,170.4,286.4,170.4z M281.7,153.9l5.2,14.4l13.5-7.1l-0.6-4.8l-14.3-5.5L281.7,153.9z"/>
				<path class="st2" d="M301.3,162.5c-0.1,0-0.2,0-0.3-0.1l-20.6-8c-0.4-0.2-0.7-0.7-0.5-1.1s0.7-0.7,1.1-0.5l20.6,8
					c0.4,0.2,0.7,0.7,0.5,1.1C302,162.3,301.6,162.5,301.3,162.5z"/>
				<path class="st2" d="M286.4,170.4c-0.5,0-0.8-0.4-0.9-0.8l-1.2-19.7c0-0.5,0.3-0.9,0.8-0.9c0,0,0,0,0.1,0c0.5,0,0.8,0.4,0.9,0.8
					l1.2,19.7C287.3,170,286.9,170.4,286.4,170.4C286.4,170.4,286.4,170.4,286.4,170.4z"/>
				<path class="st2" d="M286.4,170.4c-0.2,0-0.5-0.1-0.6-0.3c-0.3-0.3-0.3-0.9,0-1.2l14.1-13.8c0.4-0.3,0.9-0.3,1.2,0
					c0.3,0.3,0.3,0.9,0,1.2L287,170.2C286.8,170.3,286.6,170.4,286.4,170.4z"/>
				<path class="st2" d="M296.4,160.6c-0.3,0-0.6-0.2-0.8-0.5l-3.2-6.3l-6.6,2.5c-0.4,0.1-1-0.1-1.1-0.5c-0.2-0.4,0.1-1,0.5-1.1
					l7.3-2.8c0.4-0.1,0.9,0,1.1,0.4l3.5,7c0.2,0.4,0,0.9-0.4,1.2C296.7,160.6,296.5,160.6,296.4,160.6z"/>
			</g>
			<g>
				<path class="st2" d="M202.6,69.1c-0.4,0-0.7-0.2-0.8-0.6l-1-3.3c-0.1-0.5,0.1-0.9,0.6-1.1c0.5-0.1,0.9,0.1,1.1,0.6l1,3.3
					c0.1,0.5-0.1,0.9-0.6,1.1C202.8,69.1,202.7,69.1,202.6,69.1z"/>
				<path class="st2" d="M195.5,71.4c-0.1,0-0.3,0-0.4-0.1l-3.1-1.6c-0.4-0.2-0.6-0.7-0.4-1.2c0.2-0.4,0.8-0.6,1.2-0.4l3.1,1.6
					c0.4,0.2,0.6,0.7,0.4,1.2C196.1,71.2,195.8,71.4,195.5,71.4z"/>
				<path class="st2" d="M209.7,66.9c-0.1,0-0.3,0-0.4-0.1c-0.4-0.2-0.6-0.7-0.4-1.2l1.6-3.1c0.2-0.4,0.8-0.6,1.2-0.4
					c0.4,0.2,0.6,0.7,0.4,1.2l-1.6,3.1C210.4,66.7,210.1,66.9,209.7,66.9z"/>
			</g>
			<g>
				<path class="st2" d="M304.8,152.4c-0.2,0-0.5-0.1-0.6-0.3c-0.3-0.3-0.3-0.9,0-1.2l2.5-2.4c0.3-0.3,0.9-0.3,1.2,0
					c0.3,0.3,0.3,0.9,0,1.2l-2.5,2.4C305.3,152.3,305.1,152.4,304.8,152.4z"/>
				<path class="st2" d="M299.7,146.9C299.7,146.9,299.7,146.9,299.7,146.9c-0.5,0-0.9-0.4-0.9-0.9l0.1-3.4c0-0.5,0.4-0.8,0.9-0.8
					c0,0,0,0,0,0c0.5,0,0.9,0.4,0.8,0.9l-0.1,3.4C300.6,146.6,300.2,146.9,299.7,146.9z"/>
				<path class="st2" d="M313.4,157.9C313.4,157.9,313.4,157.9,313.4,157.9l-3.5-0.1c-0.5,0-0.9-0.4-0.8-0.9c0-0.5,0.4-0.8,0.9-0.8
					c0,0,0,0,0,0l3.4,0.1c0.5,0,0.9,0.4,0.8,0.9C314.3,157.5,313.9,157.9,313.4,157.9z"/>
			</g>
			<g>
				<path class="st2" d="M83.3,169.8c-0.2,0-0.4-0.1-0.6-0.2l-2.5-2.3c-0.4-0.3-0.4-0.9,0-1.2c0.3-0.4,0.9-0.4,1.2,0l2.5,2.3
					c0.4,0.3,0.4,0.9,0,1.2C83.7,169.7,83.5,169.8,83.3,169.8z"/>
				<path class="st2" d="M74.8,175.4c-0.5,0-0.9-0.4-0.9-0.8c0-0.5,0.4-0.9,0.8-0.9l3.4-0.1c0,0,0,0,0,0c0.5,0,0.9,0.4,0.9,0.8
					c0,0.5-0.4,0.9-0.8,0.9L74.8,175.4C74.8,175.4,74.8,175.4,74.8,175.4z"/>
				<path class="st2" d="M88.3,164.3c-0.5,0-0.9-0.4-0.9-0.8l-0.1-3.4c0-0.5,0.4-0.9,0.8-0.9c0,0,0,0,0,0c0.5,0,0.9,0.4,0.9,0.8
					l0.1,3.4C89.2,163.9,88.9,164.3,88.3,164.3C88.4,164.3,88.3,164.3,88.3,164.3z"/>
			</g>
			<path class="st2" d="M71.2,196.2c1.6,1.7,1.6,3.9-0.1,5.5c-1.6,1.6-4.1,1.5-5.6-0.1c-1.4-1.6-1.4-4,0.1-5.5
				C67.2,194.6,69.7,194.6,71.2,196.2z"/>
			<path class="st2" d="M196.8,113.2c-1.5,1.5-4.2,1.4-5.7-0.1c-1.5-1.6-1.5-4.1,0.1-5.6c1.5-1.5,4.2-1.5,5.6,0
				C198.3,109,198.3,111.8,196.8,113.2z"/>
		</g>
		<g>
			<path class="st2" d="M290.8,223.7H111.5c-2,0-3.9,0.7-5.4,1.9L64.2,258c-1.9,1.4-2.6,3.8-1.8,6c0.8,2.2,2.8,3.6,5.1,3.6h38v88.7
				c0,7.4,6,13.5,13.5,13.5h56.7h6.4h98.8c8.6,0,15.5-6.9,15.5-15.5v-86.7h38.5c2.3,0,4.3-1.4,5.1-3.6c0.8-2.2,0.1-4.6-1.8-6
				l-42-32.5C294.6,224.3,292.7,223.7,290.8,223.7z M70.5,261.3l39.7-30.7l59.2-0.5l-37.7,29.2c-1.7,1.3-3.8,2-5.9,2H70.5z
				 M175.6,363.4h-54.3c-5.2,0-9.4-4.2-9.4-9.4v-86.3h13.9c3.6,0,7-1.2,9.8-3.4l40-31V363.4z M290,352c0,6.3-5.1,11.5-11.5,11.5H182
				V233.4l40,31c2.8,2.2,6.3,3.4,9.8,3.4H290V352z M231.9,261.3c-2.1,0-4.2-0.7-5.9-2L188.2,230l101.7,0.2l1.9,0l40,31H231.9z"/>
		</g>
	</g>
</g>
<rect x="0.5" y="0.5" class="st1" width="892.1" height="430.9"/>
</svg>
