<?xml version="1.0" encoding="utf-8"?>
<!-- Generator: Adobe Illustrator 21.0.0, SVG Export Plug-In . SVG Version: 6.00 Build 0)  -->
<svg version="1.1" id="Layer_1" xmlns="http://www.w3.org/2000/svg" xmlns:xlink="http://www.w3.org/1999/xlink" x="0px" y="0px"
	 viewBox="0 0 701.7 751.1" style="enable-background:new 0 0 701.7 751.1;" xml:space="preserve">
<style type="text/css">
	.st0{fill:#423E40;}
	.st1{fill:none;}
	.st2{fill:#FFFFFF;}
	.st3{fill:none;stroke:#423E40;stroke-miterlimit:10;}
</style>
<g>
	<g>
		<g>
			<path class="st0" d="M209.6,634.9v5.5c0,6.3-3.7,10.4-10.8,10.4c-1.1,0-2.7-0.1-4-0.4l-4.2-9.8l-2.8-0.5v-3.4h6.7l3.8,10.5h0.5
				c3.8,0,5.5-2.6,5.5-6.9V635c0-4-2-6.1-5.8-6.1c-3.5,0-4.9,1.7-5.5,2.8h-4.6v-2.9c1.6-1.5,5-3.6,10.4-3.6
				C205.8,625.2,209.6,628.9,209.6,634.9z"/>
			<path class="st0" d="M199.4,619.2v-2.8h5.3v1.6c0,0.5,0.3,0.8,0.9,0.8h12v3.7h-14.5C201,622.5,199.4,621.6,199.4,619.2z"/>
			<path class="st0" d="M239.6,646.9v3.4H232v-3.1c-1,1.2-3.7,3.7-8,3.7c-4.4,0-8.8-2.7-8.8-9.3v-11.9l-2.4-0.5v-3.4h7.6v15.7
				c0,4.3,2.1,5.7,4.7,5.7c3.4,0,5.7-2.5,6.8-4.4v-13.1l-2.4-0.5v-3.4h7.6v20.6L239.6,646.9z"/>
			<path class="st0" d="M243.2,646.9l2.4-0.5v-16.7l-2.4-0.5v-3.4h7.6v2.9c1-1.2,3.6-3.4,7.8-3.4c4.7,0,9,2.7,9,9.5v11.6l2.4,0.5
				v3.4h-10v-3.4l2.4-0.5v-11.5c0-4.5-2.5-6-5.1-6c-3.1,0-5.3,2.1-6.4,4.2v13.3l2.4,0.5v3.4h-10V646.9z"/>
			<path class="st0" d="M274.2,647.5v-3h5.2c0.7,1.3,1.6,2.7,4.8,2.7c2.9,0,4.8-1.2,4.8-3.3c0-1.8-1.4-2.9-6.5-4.8
				c-5.9-2.3-8.3-4.4-8.3-7.7c0-4,3.5-6.1,9.4-6.1c5.5,0,8.5,2,10,3.2v3.1h-4.7c-0.5-1.1-1.7-2.7-5.1-2.7c-2.5,0-4.1,0.9-4.1,2.4
				c0,1.7,1.9,2.7,7.4,4.8c4.7,1.8,7.4,3.7,7.4,7.6c0,5-4.6,7.1-10,7.1C278.7,650.8,275.4,648.4,274.2,647.5z"/>
			<path class="st0" d="M285.1,620.7c0-2.4,1.6-3.4,3.7-3.4h11v3.7h-9c-0.6,0-0.9,0.3-0.9,0.9v1.5h-4.8V620.7z"/>
			<path class="st0" d="M306.1,646.4l2.4,0.5v3.4h-10v-3.4l2.4-0.5v-16.7l-2.4-0.5v-3.4h7.6V646.4z"/>
			<path class="st0" d="M332.6,634.9v5.5c0,6.3-3.7,10.4-10.8,10.4c-1.1,0-2.7-0.1-4-0.4l-4.2-9.8l-2.8-0.5v-3.4h6.7l3.8,10.5h0.5
				c3.8,0,5.5-2.6,5.5-6.9V635c0-4-2-6.1-5.8-6.1c-3.5,0-4.9,1.7-5.5,2.8h-4.6v-2.9c1.6-1.5,5-3.6,10.4-3.6
				C328.8,625.2,332.6,628.9,332.6,634.9z"/>
			<path class="st0" d="M323.6,622.2v-1.7l0.9-1.7H322v-3.7h6.9v2.7l-0.8,1.3c0.7,0.2,1.4,0.2,2.1,0.2c2.4,0,4.2-0.7,5.5-1.8h3.9
				v2.9c-1.6,1.1-4.6,2.4-9.3,2.4C328.2,623,325.6,622.7,323.6,622.2z"/>
			<path class="st0" d="M357,646.9v3.4h-10v-3.4l2.4-0.5V634c0-3.6-1.3-5-4.5-5c-3.4,0-4.2,1.7-4.5,2.8h-4.7v-2.9
				c1.3-1.3,4-3.6,9.4-3.6c6.4,0,9.5,3,9.5,8.6v12.6L357,646.9z"/>
			<path class="st0" d="M387.9,646.9v3.4h-10v-3.4l2.4-0.5v-11.2c0-4-1.9-6.3-6-6.3c-4.1,0-6.1,2.3-6.1,6.3v10.1l4.7-5.2l-2.4-0.5
				v-3.4h6.8v4.4l-9.4,9.8h-7.4v-3.4l2.4-0.5v-11.2c0-6.2,4-10,11.3-10c7.3,0,11.3,3.8,11.3,10v11.2L387.9,646.9z"/>
			<path class="st0" d="M414.2,634.7v6.6c0,6.3-4.9,9.6-11.6,9.6s-11.3-3.3-11.3-8.6v-2c0-3.1,2.1-5,6.1-5c1.6,0,3.4,0.3,5,0.7v3.2
				h-3.7c-0.3-0.2-0.7-0.2-1-0.2c-0.9,0-1.3,0.5-1.3,1.5v1.6c0,2.9,1.9,5.1,6.1,5.1c4.2,0,6.3-2.2,6.3-5.7v-6.6
				c0-3.7-2.1-5.9-6.3-5.9c-3.9,0-5.4,1.8-6,2.8h-4.7v-2.9c1.6-1.2,5.2-3.6,10.9-3.6C410,625.2,414.2,628.7,414.2,634.7z"/>
			<path class="st0" d="M418.5,646.9l2.4-0.5v-16.7l-2.4-0.5v-3.4h7.6v2.9c1-1.2,3.6-3.4,7.8-3.4c4.7,0,9,2.7,9,9.5v11.6l2.4,0.5
				v3.4h-10v-3.4l2.4-0.5v-11.5c0-4.5-2.5-6-5.1-6c-3.1,0-5.3,2.1-6.4,4.2v13.3l2.4,0.5v3.4h-10V646.9z"/>
			<path class="st0" d="M448.9,646.9l2.4-0.5v-11.2c0-6.3,4-10,11.3-10c7.3,0,11.3,3.7,11.3,10v11.2l2.4,0.5v3.4h-10v-3.4l2.4-0.5
				v-11.2c0-4-1.9-6.3-6-6.3c-4.1,0-6.1,2.3-6.1,6.3v3.7c0.5-1.3,2.3-3.1,4.8-3.1h4v6h-3.8l-0.9-2.4c-1.9,0-3.7,1.2-4.1,3.5v3.4
				l2.4,0.5v3.4h-10V646.9z"/>
			<path class="st0" d="M502.9,634.7v6.6c0,6.3-4.9,9.6-11.6,9.6c-6.7,0-11.3-3.3-11.3-8.6v-2c0-3.1,2.1-5,6.1-5
				c1.6,0,3.4,0.3,5,0.7v3.2h-3.7c-0.3-0.2-0.7-0.2-1-0.2c-0.9,0-1.3,0.5-1.3,1.5v1.6c0,2.9,1.9,5.1,6.1,5.1c4.2,0,6.3-2.2,6.3-5.7
				v-6.6c0-3.7-2.1-5.9-6.3-5.9c-3.9,0-5.4,1.8-6,2.8h-4.7v-2.9c1.6-1.2,5.2-3.6,10.9-3.6C498.7,625.2,502.9,628.7,502.9,634.7z"/>
			<path class="st0" d="M531.4,641.6c0,6.6-4.2,9.3-9.1,9.3c-4.1,0-6.3-1.9-7.5-3.4v2.9h-7.6v-3.4l2.4-0.5v-16.7l-2.4-0.5v-3.4h7.6
				V643c1.1,2,3.3,4.2,6.4,4.2c2.6,0,4.9-1.5,4.9-5.7v-11.8l-2.4-0.5v-3.4h7.6V641.6z"/>
		</g>
		<g>
			<path class="st0" d="M166.8,547.6c0-12.9,9.4-18.6,23.1-19.6l19.1-1.3v-2.3c0-8.3-3.9-12.1-12.4-12.1c-6.6,0-9.9,2.3-11.5,4.7
				c-0.8,1.1-2.2,1.7-3.6,1.7h-6.9c-2.3,0-4.1-1.9-4.1-4.1v-2.3c0-1.4,0.7-2.7,1.9-3.5c5-3.3,13.3-7.1,24.9-7.1
				c16.6,0,27,7.5,27,22.6v30.9l3.5,0.8c1.9,0.4,3.2,2.1,3.2,4v2.3c0,2.3-1.9,4.1-4.1,4.1h-13.7c-2.3,0-4.1-1.9-4.1-4.1v-3.2
				c-3.9,4.8-10.4,8.8-19.7,8.8C176.7,568.2,166.8,560.9,166.8,547.6z M209,541.6v-4.1l-16,0.9c-7.4,0.5-10.7,3.5-10.7,9.3
				c0,7,4.8,10,10.9,10C201.2,557.7,209,552.6,209,541.6z"/>
			<path class="st0" d="M242.3,556.2l3.5-0.8v-40.7l-3.5-0.8c-1.9-0.4-3.2-2.1-3.2-4v-2.3c0-2.3,1.9-4.1,4.1-4.1h13.7
				c2.3,0,4.1,1.9,4.1,4.1v2.4c2.3-2.3,9-8,20-8c12.4,0,23.7,7.7,23.7,24.2v29.3l3.5,0.8c1.9,0.4,3.2,2.1,3.2,4v2.3
				c0,2.3-1.9,4.1-4.1,4.1h-20.5c-2.3,0-4.1-1.9-4.1-4.1v-2.3c0-1.9,1.3-3.6,3.2-4l3.5-0.8v-28.9c0-9.8-5.8-14.1-12.8-14.1
				c-6.7,0-12.6,3.8-15.7,8.7v34.3l3.5,0.8c1.9,0.4,3.2,2.1,3.2,4v2.3c0,2.3-1.9,4.1-4.1,4.1h-20.5c-2.3,0-4.1-1.9-4.1-4.1v-2.3
				C239,558.3,240.4,556.6,242.3,556.2z"/>
			<path class="st0" d="M353.8,547.6c0-12.9,9.4-18.6,23.1-19.6l19.1-1.3v-2.3c0-8.3-3.9-12.1-12.4-12.1c-6.6,0-9.9,2.3-11.5,4.7
				c-0.8,1.1-2.2,1.7-3.6,1.7h-6.9c-2.3,0-4.1-1.9-4.1-4.1v-2.3c0-1.4,0.7-2.7,1.9-3.5c5-3.3,13.3-7.1,24.9-7.1
				c16.6,0,27,7.5,27,22.6v30.9l3.5,0.8c1.9,0.4,3.2,2.1,3.2,4v2.3c0,2.3-1.9,4.1-4.1,4.1h-13.7c-2.3,0-4.1-1.9-4.1-4.1v-3.2
				c-3.9,4.8-10.4,8.8-19.7,8.8C363.8,568.2,353.8,560.9,353.8,547.6z M396,541.6v-4.1l-16,0.9c-7.4,0.5-10.7,3.5-10.7,9.3
				c0,7,4.8,10,10.9,10C388.3,557.7,396,552.6,396,541.6z"/>
			<path class="st0" d="M425,541v-11.8c0-16.7,11.3-27.3,31.3-27.3c19.9,0,31.2,10.6,31.2,27.3V541c0,16.7-11.3,27.3-31.2,27.3
				C436.4,568.2,425,557.7,425,541z M472.3,540.7v-11.3c0-10.9-5-17-16-17c-11.1,0-16.1,6-16.1,17v11.3c0,10.9,5,17,16.1,17
				C467.3,557.7,472.3,551.6,472.3,540.7z"/>
			<path class="st0" d="M499.8,514.7l-2.9-0.7c-1.8-0.5-3.1-2.1-3.1-4v-2.4c0-2.3,1.9-4.1,4.1-4.1h21.3c2.3,0,4.1,1.9,4.1,4.1v2.3
				c0,2-1.4,3.7-3.3,4.1l-4.1,0.8l11.1,38.6l12.6-38.6l-3.5-0.8c-1.9-0.4-3.2-2.1-3.2-4v-2.3c0-2.3,1.9-4.1,4.1-4.1h21.6
				c2.3,0,4.1,1.9,4.1,4.1v2.3c0,1.9-1.4,3.6-3.3,4l-3.7,0.8l12.6,38.6l11.1-38.6l-4.1-0.8c-1.9-0.4-3.3-2.1-3.3-4.1v-2.3
				c0-2.3,1.9-4.1,4.1-4.1h21.3c2.3,0,4.1,1.9,4.1,4.1v2.4c0,1.9-1.3,3.6-3.1,4l-2.9,0.7l-16.2,49.2c-0.6,1.7-2.1,2.8-3.9,2.8h-12.4
				c-1.8,0-3.4-1.2-3.9-2.9l-11.3-35.9l-11.4,35.9c-0.5,1.7-2.1,2.9-3.9,2.9h-12.4c-1.8,0-3.4-1.1-3.9-2.8L499.8,514.7z"/>
			<path class="st0" d="M155.2,476.4l-33.9,0.1c-2.2,0-4,2-4,4.3l0,2.2c0,2,1.4,3.6,3.1,4l15.5,1.1c0.1,16.9,0.3,40.8,0.3,53.9
				c0.1,8.9-4.6,15-11.7,15c-3.1,0-5.8-1.3-6.7-3.1c1.8-0.7,2.9-3.8,2.8-7.6c0-6.5-4.3-10.7-10.5-10.6s-10.4,4.3-10.4,10.8
				c0.1,13.8,9.3,21.8,24.9,21.7c16.5-0.1,27.3-10.9,27.2-27.1l-0.3-53l4.7-1.1c2-0.5,3.3-2.2,3.3-4l0-2.2
				C159.5,478.3,157.4,476.3,155.2,476.4z"/>
			<g>
				<path class="st0" d="M339,503.4h-13.6c-2.5,0-4.4,1.9-4.4,4.1v2.2c0,2.2,1.6,3.8,3.5,4.1l3.5,0.9v62.8c0,6.3-3.2,10.4-7.6,10.4
					c-1.6,0-3.2-0.3-4.1-0.9c0.3-1.6,0.6-3.5,0.6-4.7c0-5.4-3.5-8.8-8.8-8.8c-5,0-8.5,3.8-8.5,9.1c0,10.7,7.3,16.1,21.1,16.1
					c14.8,0,22.4-7.3,22.4-21.1v-70C343.1,505.3,341.2,503.4,339,503.4z M334.9,492.4c5.4,0,9.8-4.7,9.8-10.1s-4.4-9.8-9.8-9.8
					c-5.7,0-10.1,4.4-10.1,9.8S329.2,492.4,334.9,492.4z"/>
			</g>
		</g>
	</g>
	<g>
		<path class="st0" d="M394.9,375.6c7.4,7.8,14.5,14.7,22.4,14.7c8.1,0,14.7-6.6,14.7-14.7c0-8.1-6.6-14.7-14.7-14.7
			C409.4,360.9,402.3,367.8,394.9,375.6z M417.3,396.2c-11.1,0-20-9.4-28.5-18.5c-8.1-8.6-15.7-16.7-24.4-16.7
			c-8.1,0-14.7,6.6-14.7,14.7c0,8.1,6.6,14.7,14.7,14.7c5,0,10.2-2.7,16.7-8.9c1.2-1.1,3-1.1,4.2,0.1c1.1,1.2,1.1,3-0.1,4.2
			c-5.2,4.9-12.2,10.5-20.7,10.5c-11.3,0-20.6-9.2-20.6-20.6c0-11.3,9.2-20.6,20.6-20.6c10.3,0,18.6,7.9,26.5,16.3
			c7.9-8.3,16.2-16.3,26.4-16.3c11.3,0,20.6,9.2,20.6,20.6C437.9,386.9,428.6,396.2,417.3,396.2z"/>
		<g>
			<path class="st0" d="M273.5,226.9c1.3-0.4,2.5-0.6,3.8-0.8c1.6,2.6,2.2,5,2.3,6.6c0.5,5.2-2.3,10.2-6.7,12.2
				c-2.7,1.2-4.8,0.3-6-0.7c-2.4-1.9-3.6-5.5-2.9-8.7C264.8,231.4,268.2,228.4,273.5,226.9z M301.4,245.6c0.1,0,0.2-0.1,0.3-0.1
				c0,1.7-0.1,3.4-0.4,5.2c-0.7,3.8-2.2,6-4.1,6c-1.7,0-3.3-1.7-3.6-3.6C293.1,250.1,296.1,247.3,301.4,245.6z M272.4,223
				c-9.3,2.6-11.8,8.4-12.4,11.6c-0.9,4.2,0.4,8.7,3.2,11.7c0.4,0.4,0.7,0.7,1.1,1c3,2.4,6.7,2.8,10.2,1.2c6-2.7,9.6-9.2,9-16.2
				c-0.1-1.6-0.6-3.9-1.9-6.5c5.3,0.1,10,1.9,13.7,5.1c3,2.8,5,6.4,5.8,10.5c-0.3,0.1-0.7,0.2-1,0.3c-11,3.5-10.9,10-10.7,11.9
				c0.6,3.9,3.9,7,7.6,7.1c1.5,0,6.6-0.6,8.2-9.3c0.4-2.3,0.6-4.5,0.5-6.7c2.8-0.2,5.3,0.4,7.5,1.7c6.9,4.1,9,14.4,9,14.5
				c0.2,1.1,1.3,1.8,2.4,1.6c1.1-0.2,1.8-1.3,1.6-2.4c-0.1-0.5-2.4-12.1-10.9-17.2c-3-1.8-6.4-2.5-10.1-2.2c-1-5-3.4-9.4-7.1-12.7
				c-5-4.5-11.6-6.6-18.9-6.1c-3.5-4.4-9.8-9-21.1-11.8c-1.1-0.3-2.2,0.4-2.5,1.5c-0.3,1.1,0.4,2.2,1.5,2.5
				c8.6,2.2,13.9,5.4,17.2,8.6C273.7,222.7,273.1,222.8,272.4,223z"/>
			<path class="st0" d="M314.8,213l-4.8-4.8l4.8-4.8c0.8-0.8,0.8-2.1,0-2.9c-0.8-0.8-2.1-0.8-2.9,0l-4.8,4.8l-4.8-4.8
				c-0.8-0.8-2.1-0.8-2.9,0c-0.8,0.8-0.8,2.1,0,2.9l4.8,4.8l-4.8,4.8c-0.8,0.8-0.8,2.1,0,2.9c0.4,0.4,0.9,0.6,1.4,0.6
				c0.5,0,1-0.2,1.4-0.6l4.8-4.8l4.8,4.8c0.4,0.4,0.9,0.6,1.4,0.6c0.5,0,1-0.2,1.4-0.6C315.6,215.1,315.6,213.7,314.8,213z"/>
			<path class="st0" d="M247.4,260.1c-4.5,1.8-6.9,2.7-9.6,0c-0.8-0.8-2.1-0.8-2.9,0c-0.8,0.8-0.8,2.1,0,2.9
				c2.1,2.1,4.3,2.8,6.5,2.8c2.6,0,5.1-1,7.5-2c4.6-1.9,8.9-3.6,14.2,0.5c0.9,0.7,2.2,0.5,2.8-0.4c0.7-0.9,0.5-2.1-0.4-2.8
				C258.5,255.6,252.4,258.1,247.4,260.1z"/>
			<path class="st0" d="M333,195.3c-0.2-0.5-0.3-1-0.3-1.5c0.1-0.8,0.5-1.7,1.2-2.5c2.1-2.2,5.2-2.7,8.2-2.4
				c-0.1,0.9-0.2,1.8-0.5,2.8c-1.1,3.4-2.9,5.4-5.1,5.6C335,197.5,333.6,196.6,333,195.3z M345.4,193.1c0.4-1.1,0.6-2.2,0.7-3.3
				c3.3,0.9,5.9,2.2,6,2.2c1,0.5,2.2,0.1,2.7-0.9c0.1-0.2,0.2-0.5,0.2-0.8c0.1-0.8-0.4-1.6-1.1-2c-0.3-0.1-3.7-1.9-8-2.8
				c-1.5-8.1-9.6-14-14.8-16.4c-1-0.5-2.2,0-2.7,1c-0.4,1,0,2.2,1,2.7c0.1,0.1,9.7,4.5,12.1,12.1c-3.8-0.2-7.8,0.6-10.7,3.7
				c-2.3,2.5-3,5.7-1.7,8.5c1.3,2.8,4.3,4.6,7.5,4.4C338.6,201.3,343.1,200.3,345.4,193.1z"/>
			<path class="st0" d="M384.1,226.7c-0.6,1.5-1.5,2.8-3.3,2c-1.7-0.8-1.4-2.3-0.8-3.7c0.6-1.5,1.2-2.9,1.7-4.5
				c2.8-8.7,0.3-16.1-5.8-22.6c-4.2-4.5-9-8.3-12.8-13.2c-3.9-4.9-5.1-10.4-3.2-16.4c0.3-1.1,0.8-2.1,1.4-3c0.6-1,1.7-1.2,2.7-0.7
				c1,0.5,1.3,1.4,1.1,2.4c-0.4,1.5-1,2.9-1.3,4.3c-0.9,4.2,0.6,7.8,3.2,11.1c3.5,4.3,7.9,7.9,11.7,11.9
				C387.9,203.9,389.6,214.7,384.1,226.7z"/>
			<path class="st0" d="M441.2,243.7c1.6-1.7,4.5-2.9,7.6-3.7c4.2-1.1,8.4-1.9,12.5-3c3.4-0.9,6.6-2.3,9.2-4.8
				c1.2-1.1,2.6-1.6,3.7-0.2c1.2,1.4,0.2,2.6-0.9,3.7c-3.9,3.7-8.8,5.3-13.9,6.5c-3,0.7-6.1,1.3-9.1,2c-6.7,1.6-9.5,5-10,11.8
				c-0.1,0.9-0.1,1.8-0.2,2.6c-0.2,1.3-0.9,2-2.2,2c-1.3,0-2.1-0.8-2.1-2.1C435.8,253.3,436.5,248.3,441.2,243.7z"/>
			<path class="st0" d="M331.4,212.8L331.4,212.8c1.7-1.7,4.5-1.7,6.2,0c3.9,4.1-2.1,10.1-6.2,6.2
				C329.7,217.3,329.7,214.5,331.4,212.8z"/>
			<path class="st0" d="M372,262.1c1.8,1.8,1.7,4.4-0.1,6.1c-1.7,1.7-4.5,1.7-6.2-0.2c-1.6-1.7-1.6-4.4,0.1-6.1
				C367.6,260.4,370.4,260.4,372,262.1z"/>
			<path class="st0" d="M482.8,259.4c-1.7,1.6-4.6,1.6-6.3-0.1c-1.7-1.8-1.6-4.5,0.1-6.2c1.7-1.6,4.6-1.6,6.3,0
				C484.5,254.8,484.4,257.8,482.8,259.4z"/>
			<path class="st0" d="M351.9,245.9c2.8,1.3,5.2,3.3,5.8,6.3c0.4,1.7-0.1,3.1-1.2,3.9c-1.2,0.8-2.9,0.8-4.1-0.1
				c-1.8-1.2-2.3-3.9-1.5-7.4C351.2,247.6,351.5,246.7,351.9,245.9z M350.5,240.9c-4.2-1.4-8-1.7-8.3-1.7c-1.1-0.1-2.1,0.8-2.2,1.9
				c0,1.1,0.8,2.1,1.9,2.2c0.1,0,3,0.2,6.2,1.2c-0.4,1-0.8,2-1.1,3.2c-1.7,7.4,1.6,10.6,3.1,11.7c2.6,1.8,6.1,1.8,8.7,0.1
				c2.6-1.7,3.6-4.7,2.9-8.1c-0.9-4.2-3.9-6.9-7.3-8.7c5.7-5.2,16.1-4.1,16.6-4.1c1.1,0.1,2.1-0.7,2.2-1.8c0-0.1,0-0.1,0-0.2
				c0-1-0.8-1.9-1.8-2C365.9,233.9,355.9,234.7,350.5,240.9z"/>
			<path class="st0" d="M424.2,209.5l-4.8-4.8l4.8-4.8c0.8-0.8,0.8-2.1,0-2.9c-0.8-0.8-2.1-0.8-2.9,0l-4.8,4.8l-4.8-4.8
				c-0.8-0.8-2.1-0.8-2.9,0c-0.8,0.8-0.8,2.1,0,2.9l4.8,4.8l-4.8,4.8c-0.8,0.8-0.8,2.1,0,2.9c0.4,0.4,0.9,0.6,1.4,0.6
				c0.5,0,1-0.2,1.4-0.6l4.8-4.8l4.8,4.8c0.4,0.4,0.9,0.6,1.4,0.6c0.5,0,1-0.2,1.4-0.6C424.9,211.6,424.9,210.3,424.2,209.5z"/>
			<path class="st0" d="M389.1,149.4c2.7-0.6,4.8-0.2,5.7,1.1c0.7,0.9,0.7,2.2,0,3.2c-0.6,0.9-1.7,1.2-3,0.9
				c-2.3-0.5-3.9-2.4-4.9-4.5C387.6,149.8,388.3,149.5,389.1,149.4z M378.1,165.3c0.1,0.8,0.8,1.4,1.6,1.4c0.1,0,0.1,0,0.2,0
				c0.9-0.1,1.5-0.9,1.4-1.7c-0.1-0.4-0.9-8.4,3.2-12.9c1.4,2.6,3.5,5,6.7,5.7c2.6,0.6,5-0.3,6.3-2.3c1.3-2,1.3-4.7-0.1-6.7
				c-0.8-1.2-3.3-3.8-9.1-2.4c-0.9,0.2-1.7,0.5-2.5,0.8c-0.7-2.6-0.9-4.8-0.9-4.8c-0.1-0.9-0.8-1.6-1.7-1.5
				c-0.9,0.1-1.5,0.8-1.5,1.7c0,0.3,0.2,3.2,1.3,6.4C378.3,153.2,377.6,160.9,378.1,165.3z"/>
			<path class="st0" d="M404.5,183.6l-0.2-2.7c-0.3-5.4-0.6-11-0.2-15.9c0.5-5.9,2.1-10.3,4.9-13.2c1.9-2,4.5-3.2,7.4-3.2
				c2.8,0,5.5,1,7.5,3c2.4,2.3,3.5,4.7,3.5,7.7c0.7-0.1,1.3,0,1.9,0c2.2,0.2,4.2,1.2,6,2.9c2.1,1.9,3.3,4.5,3.4,7.3
				c0.2,2.8-0.8,5.5-2.7,7.5c-2.8,3-6.9,4.8-12.9,5.7c-4.9,0.8-10.5,0.8-15.9,0.9L404.5,183.6z M418.5,152.6
				c-0.7-0.2-1.4-0.3-2.1-0.3c-1.8,0-3.5,0.7-4.7,2c-2.2,2.3-3.4,5.9-3.9,11c-0.4,4.5-0.1,9.6,0.1,14.6c5-0.1,10.2-0.1,14.6-0.8
				c5.1-0.8,8.6-2.3,10.7-4.6c1.2-1.3,1.8-3,1.7-4.8c-0.1-1.8-0.9-3.6-2.3-4.8c-1.3-1.2-2.5-1.8-3.9-1.9c-0.9-0.1-1.9,0-3.1,0.3
				l-2.8,0.8l0.6-2.9c0.6-3.1,0.1-4.9-2.1-6.9C420.5,153.5,419.6,152.9,418.5,152.6z"/>
			<path class="st0" d="M283,202.1l-2.3-1c-4-1.8-8.1-3.7-11.5-5.9c-4.1-2.7-6.6-5.5-7.7-8.6c-0.8-2.2-0.6-4.6,0.5-6.7
				c1.1-2.1,2.9-3.6,5.1-4.4c2.5-0.9,4.6-0.8,6.7,0.3c0.2-0.4,0.4-0.7,0.6-1c1-1.6,2.5-2.6,4.5-3.3c2.2-0.8,4.6-0.7,6.8,0.3
				c2.2,1,3.8,2.8,4.5,5c1.1,3.2,0.8,6.8-0.8,11.6c-1.3,3.8-3.4,7.8-5.4,11.6L283,202.1z M270.4,178.4c-0.6,0-1.3,0.1-2,0.4
				c-1.3,0.5-2.4,1.4-3.1,2.6c-0.6,1.2-0.7,2.6-0.3,3.8c0.8,2.3,2.8,4.5,6.2,6.7c2.9,1.9,6.6,3.6,10.1,5.3c1.8-3.5,3.6-7.1,4.8-10.4
				c1.3-3.8,1.6-6.8,0.8-9.2c-0.4-1.3-1.4-2.3-2.6-2.8c-1.3-0.6-2.7-0.7-4-0.2c-1.3,0.4-2.1,1-2.7,1.9c-0.4,0.6-0.7,1.3-0.9,2.2
				l-0.7,2.9l-2.3-1.8C272.5,178.9,271.5,178.4,270.4,178.4z"/>
			<path class="st0" d="M307.9,160.4c-0.7,0-1.4-0.2-2-0.6c-1.2-0.8-1.8-2.1-1.6-3.5l0.6-4.5l-3.4-3c-1-0.9-1.4-2.3-1.1-3.7
				c0.4-1.3,1.4-2.3,2.8-2.6l4.5-0.9l1.8-4.2c0.6-1.3,1.8-2.1,3.2-2.2c1.4-0.1,2.7,0.7,3.3,1.9l2.2,4l4.5,0.5c1.4,0.1,2.5,1,3,2.3
				c0.5,1.3,0.2,2.7-0.8,3.7l-3.1,3.3l1,4.5c0.3,1.4-0.2,2.7-1.3,3.6c-1.1,0.9-2.5,1-3.8,0.4l-4.1-1.9l-3.9,2.3
				C309.1,160.2,308.5,160.4,307.9,160.4z M312.8,139l-2.5,5.9l-6.4,1.2l4.9,4.2l-0.8,6.5l5.5-3.3l5.9,2.8l-1.5-6.3l4.4-4.7
				l-6.4-0.6L312.8,139z M322.3,145.2l1.3,1.3L322.3,145.2C322.3,145.2,322.3,145.2,322.3,145.2z"/>
			<path class="st0" d="M416.2,258.4c-1.2,0-2.3-0.5-3.2-1.4l-4.7-5l-6.8,1c-1.7,0.3-3.3-0.4-4.2-1.8c-1-1.4-1-3.1-0.2-4.6l3.3-6
				l-3.1-6.1c-0.7-1.5-0.6-3.2,0.4-4.6c1-1.3,2.6-2,4.3-1.6l6.7,1.3l4.9-4.8c1.2-1.2,2.9-1.6,4.5-1c1.6,0.5,2.7,1.9,2.9,3.6l0.9,6.8
				l6.1,3.1c1.5,0.8,2.4,2.3,2.4,3.9c0,1.7-1,3.1-2.5,3.9l-0.8-1.7l0.8,1.7l-6.2,2.9l-1.1,6.8c-0.3,1.6-1.4,3-3,3.5
				C417,258.3,416.6,258.4,416.2,258.4z M409.7,248.1l6,6.4c0.2,0.3,0.5,0.2,0.7,0.2c0.1,0,0.4-0.2,0.5-0.5l1.4-8.7l8-3.7
				c0.3-0.2,0.4-0.4,0.4-0.6c0-0.2,0-0.4-0.4-0.6l-7.8-4l-1.1-8.7c0-0.4-0.3-0.5-0.4-0.5c-0.1,0-0.4-0.1-0.7,0.2l-6.2,6.2l-8.6-1.6
				c-0.3-0.1-0.6,0.1-0.7,0.3c-0.1,0.1-0.2,0.4-0.1,0.7l3.9,7.9l-4.2,7.7c-0.2,0.3-0.1,0.6,0,0.7c0.1,0.1,0.3,0.4,0.6,0.3
				L409.7,248.1z"/>
			<g>
				<path class="st0" d="M360.6,137.7c-0.2,0-0.4-0.1-0.6-0.2L342.4,123c-0.3-0.3-0.4-0.7-0.3-1.1l2.7-7.6c0.1-0.3,0.4-0.6,0.7-0.6
					l21.8-3.6c0.3-0.1,0.7,0.1,0.9,0.4l5,6.3c0.2,0.3,0.3,0.8,0.1,1.1l-11.9,19.4c-0.1,0.2-0.4,0.4-0.7,0.4
					C360.7,137.7,360.6,137.7,360.6,137.7z M344.2,122l16.1,13.3l10.9-17.8l-4.2-5.3l-20.6,3.4L344.2,122z"/>
				<path class="st0" d="M343.1,123.3c-0.5,0-0.9-0.3-0.9-0.8c-0.1-0.5,0.3-1,0.8-1.1l29.4-4.9c0.5-0.1,1,0.3,1.1,0.8
					c0.1,0.5-0.3,1-0.8,1.1l-29.4,4.9C343.2,123.3,343.1,123.3,343.1,123.3z"/>
				<path class="st0" d="M360.6,137.7c-0.3,0-0.6-0.1-0.8-0.4l-14.9-22c-0.3-0.4-0.2-1,0.3-1.3c0.4-0.3,1-0.2,1.3,0.3l14.9,22
					c0.3,0.4,0.2,1-0.3,1.3C360.9,137.7,360.8,137.7,360.6,137.7z"/>
				<path class="st0" d="M360.6,137.7c-0.1,0-0.2,0-0.2,0c-0.5-0.1-0.8-0.7-0.7-1.2l6.9-25.6c0.1-0.5,0.7-0.8,1.2-0.7
					c0.5,0.1,0.8,0.7,0.7,1.2l-6.9,25.6C361.4,137.4,361,137.7,360.6,137.7z"/>
				<path class="st0" d="M350,122.1c-0.2,0-0.4-0.1-0.6-0.2c-0.4-0.3-0.5-0.9-0.2-1.4l6.6-8.2c0.3-0.4,0.9-0.5,1.3-0.2l8.9,5.6
					c0.4,0.3,0.6,0.9,0.3,1.3c-0.3,0.4-0.9,0.6-1.3,0.3l-8.1-5.2l-6,7.5C350.6,122,350.3,122.1,350,122.1z"/>
			</g>
			<g>
				<path class="st0" d="M241.9,240.5C241.9,240.5,241.9,240.5,241.9,240.5l-20.5-1c-0.4,0-0.8-0.3-0.9-0.7l-2.2-6.9
					c-0.1-0.3,0-0.7,0.2-1l13.7-14.4c0.2-0.3,0.6-0.3,0.9-0.3l7,1.8c0.4,0.1,0.7,0.4,0.7,0.8l1.9,20.4c0,0.3-0.1,0.6-0.3,0.8
					C242.5,240.4,242.2,240.5,241.9,240.5z M222.2,237.7l18.7,0.9l-1.8-18.7l-5.8-1.5l-13,13.6L222.2,237.7z"/>
				<path class="st0" d="M221.4,239.6c-0.2,0-0.5-0.1-0.7-0.3c-0.4-0.4-0.4-1,0-1.4l18.6-19.5c0.4-0.4,1-0.4,1.4,0
					c0.4,0.4,0.4,1,0,1.4l-18.6,19.5C221.9,239.5,221.7,239.6,221.4,239.6z"/>
				<path class="st0" d="M241.9,240.5c-0.1,0-0.2,0-0.3-0.1l-22.7-7.8c-0.5-0.2-0.8-0.7-0.6-1.2c0.2-0.5,0.7-0.8,1.2-0.6l22.7,7.8
					c0.5,0.2,0.8,0.7,0.6,1.2C242.7,240.3,242.3,240.5,241.9,240.5z"/>
				<path class="st0" d="M241.9,240.5c-0.4,0-0.7-0.2-0.9-0.6l-8.9-22.3c-0.2-0.5,0-1.1,0.5-1.3c0.5-0.2,1.1,0,1.3,0.5l8.9,22.3
					c0.2,0.5,0,1.1-0.5,1.3C242.2,240.5,242.1,240.5,241.9,240.5z"/>
				<path class="st0" d="M225.8,234.9C225.8,234.9,225.8,234.9,225.8,234.9c-0.6,0-1-0.5-1-1l0.3-9.5c0-0.5,0.4-0.9,0.9-0.9l9.5-0.7
					c0.6,0,1,0.4,1,0.9c0,0.5-0.4,1-0.9,1l-8.6,0.7l-0.3,8.6C226.8,234.5,226.4,234.9,225.8,234.9z"/>
			</g>
			<g>
				<path class="st0" d="M445.9,220.2c-0.1,0-0.2,0-0.3-0.1c-0.3-0.1-0.5-0.3-0.6-0.6l-6.3-17.6c-0.1-0.4,0-0.8,0.3-1.1l5-4.2
					c0.3-0.2,0.6-0.3,1-0.2l16.9,6.6c0.3,0.1,0.6,0.4,0.6,0.8l0.9,6.5c0.1,0.4-0.1,0.8-0.5,1l-16.5,8.7
					C446.2,220.2,446.1,220.2,445.9,220.2z M440.7,202l5.7,15.9l14.9-7.9l-0.7-5.3l-15.9-6.1L440.7,202z"/>
				<path class="st0" d="M462.5,211.5c-0.1,0-0.2,0-0.3-0.1l-22.9-8.8c-0.5-0.2-0.7-0.7-0.6-1.2c0.2-0.5,0.7-0.7,1.2-0.6l22.9,8.8
					c0.5,0.2,0.7,0.7,0.6,1.2C463.2,211.3,462.8,211.5,462.5,211.5z"/>
				<path class="st0" d="M445.9,220.2c-0.5,0-0.9-0.4-1-0.9l-1.3-21.8c0-0.5,0.4-1,0.9-1c0,0,0,0,0.1,0c0.5,0,0.9,0.4,1,0.9
					l1.3,21.8C446.9,219.8,446.5,220.2,445.9,220.2C446,220.2,446,220.2,445.9,220.2z"/>
				<path class="st0" d="M445.9,220.2c-0.2,0-0.5-0.1-0.7-0.3c-0.4-0.4-0.4-1,0-1.4l15.6-15.3c0.4-0.4,1-0.4,1.4,0
					c0.4,0.4,0.4,1,0,1.4L446.6,220C446.4,220.2,446.2,220.2,445.9,220.2z"/>
				<path class="st0" d="M457,209.4c-0.4,0-0.7-0.2-0.9-0.5l-3.5-6.9l-7.3,2.8c-0.5,0.2-1.1-0.1-1.2-0.6c-0.2-0.5,0.1-1.1,0.6-1.2
					l8.1-3.1c0.5-0.2,1,0,1.2,0.5l3.9,7.7c0.2,0.5,0,1.1-0.4,1.3C457.3,209.4,457.2,209.4,457,209.4z"/>
			</g>
			<g>
				<path class="st0" d="M353.1,108c-0.4,0-0.8-0.3-0.9-0.7l-1.2-3.6c-0.2-0.5,0.1-1,0.6-1.2c0.5-0.2,1,0.1,1.2,0.6l1.2,3.6
					c0.2,0.5-0.1,1-0.6,1.2C353.3,108,353.2,108,353.1,108z"/>
				<path class="st0" d="M345.3,110.6c-0.1,0-0.3,0-0.4-0.1l-3.4-1.8c-0.5-0.2-0.7-0.8-0.4-1.3c0.2-0.5,0.8-0.7,1.3-0.4l3.4,1.8
					c0.5,0.2,0.7,0.8,0.4,1.3C345.9,110.4,345.6,110.6,345.3,110.6z"/>
				<path class="st0" d="M361,105.5c-0.1,0-0.3,0-0.4-0.1c-0.5-0.2-0.7-0.8-0.4-1.3l1.8-3.4c0.2-0.5,0.8-0.7,1.3-0.4
					c0.5,0.2,0.7,0.8,0.4,1.3l-1.8,3.4C361.7,105.4,361.4,105.5,361,105.5z"/>
			</g>
			<g>
				<path class="st0" d="M466.4,200.3c-0.3,0-0.5-0.1-0.7-0.3c-0.4-0.4-0.3-1,0-1.4l2.8-2.6c0.4-0.4,1-0.4,1.4,0
					c0.4,0.4,0.3,1,0,1.4L467,200C466.9,200.2,466.6,200.3,466.4,200.3z"/>
				<path class="st0" d="M460.7,194.3C460.7,194.3,460.7,194.3,460.7,194.3c-0.6,0-1-0.5-1-1l0.1-3.8c0-0.5,0.4-0.9,1-0.9
					c0,0,0,0,0,0c0.5,0,1,0.5,0.9,1l-0.1,3.8C461.6,193.8,461.2,194.3,460.7,194.3z"/>
				<path class="st0" d="M475.9,206.4C475.9,206.4,475.9,206.4,475.9,206.4l-3.8-0.1c-0.5,0-1-0.5-0.9-1c0-0.5,0.4-0.9,1-0.9
					c0,0,0,0,0,0l3.8,0.1c0.5,0,1,0.5,0.9,1C476.8,206,476.4,206.4,475.9,206.4z"/>
			</g>
			<g>
				<path class="st0" d="M220.9,219.5c-0.2,0-0.5-0.1-0.7-0.3l-2.8-2.6c-0.4-0.4-0.4-1-0.1-1.4c0.4-0.4,1-0.4,1.4-0.1l2.8,2.6
					c0.4,0.4,0.4,1,0.1,1.4C221.5,219.4,221.2,219.5,220.9,219.5z"/>
				<path class="st0" d="M211.5,225.8c-0.5,0-0.9-0.4-1-0.9c0-0.5,0.4-1,0.9-1l3.8-0.1c0,0,0,0,0,0c0.5,0,0.9,0.4,1,0.9
					c0,0.5-0.4,1-0.9,1L211.5,225.8C211.5,225.8,211.5,225.8,211.5,225.8z"/>
				<path class="st0" d="M226.6,213.5c-0.5,0-0.9-0.4-1-0.9l-0.1-3.8c0-0.5,0.4-1,0.9-1c0,0,0,0,0,0c0.5,0,0.9,0.4,1,0.9l0.1,3.8
					C227.5,213,227.1,213.4,226.6,213.5C226.6,213.5,226.6,213.5,226.6,213.5z"/>
			</g>
			<path class="st0" d="M207.6,248.8c1.8,1.8,1.7,4.4-0.1,6.1c-1.7,1.7-4.5,1.7-6.2-0.2c-1.6-1.7-1.6-4.4,0.1-6.1
				C203.2,247,206,247.1,207.6,248.8z"/>
			<path class="st0" d="M346.7,156.9c-1.7,1.6-4.6,1.6-6.3-0.1c-1.7-1.8-1.6-4.5,0.1-6.2c1.7-1.6,4.6-1.6,6.3,0
				C348.4,152.3,348.3,155.3,346.7,156.9z"/>
		</g>
		<g>
			<path class="st0" d="M450.8,279.3H252.2c-2.2,0-4.3,0.7-6,2.1l-46.4,36c-2.1,1.6-2.8,4.2-2,6.7c0.8,2.5,3.1,4,5.7,4h42v98.2
				c0,8.3,6.7,14.9,14.9,14.9h62.8h7.1h109.5c9.5,0,17.2-7.7,17.2-17.2v-96h42.7c2.6,0,4.8-1.6,5.7-4c0.8-2.5,0.1-5.1-2-6.7
				l-46.5-36C455.1,280,453,279.3,450.8,279.3z M206.8,320.9l43.9-34l65.6-0.5l-41.8,32.3c-1.9,1.4-4.2,2.2-6.5,2.2H206.8z
				 M323.2,434.1h-60.2c-5.8,0-10.5-4.7-10.5-10.5V328H268c3.9,0,7.8-1.3,10.9-3.7l44.4-34.3V434.1z M449.9,421.4
				c0,7-5.7,12.7-12.7,12.7H330.4V290l44.4,34.3c3.1,2.4,6.9,3.7,10.9,3.7h64.3V421.4z M385.6,320.9c-2.3,0-4.7-0.8-6.5-2.2
				l-41.8-32.3l112.7,0.3l2.1,0l44.3,34.3H385.6z"/>
		</g>
	</g>
</g>
<rect class="st1" width="701.7" height="751.1"/>
</svg>
