<?xml version="1.0" encoding="utf-8"?>
<!-- Generator: Adobe Illustrator 21.0.0, SVG Export Plug-In . SVG Version: 6.00 Build 0)  -->
<svg version="1.1" id="Layer_1" xmlns="http://www.w3.org/2000/svg" xmlns:xlink="http://www.w3.org/1999/xlink" x="0px" y="0px"
	 viewBox="0 0 572.1 723.3" style="enable-background:new 0 0 572.1 723.3;" xml:space="preserve">
<style type="text/css">
	.st0{fill:#423E40;}
	.st1{fill:none;}
	.st2{fill:#FFFFFF;}
	.st3{fill:none;stroke:#423E40;stroke-miterlimit:10;}
</style>
<path class="st0" d="M409.5,142.3L247.2,143c-10.7,0.1-19.1,9.7-19,20.4l0.1,10.7c0.1,9.6,6.5,17,15,19.1l73.9,5.2
	c0.5,80.9,1.2,194.9,1.6,257.7c0.3,42.6-21.9,71.5-56,71.7c-14.9,0.1-27.7-6.2-32-14.7c8.5-3.2,13.7-18.2,13.6-36.3
	c-0.2-30.9-20.6-51-50.4-50.8c-29.8,0.2-49.9,20.6-49.7,51.4c0.4,66,44.3,104.1,118.9,103.6c78.8-0.5,130.7-52,130.2-129.7
	l-1.6-253.5l22.3-5.5c9.6-2.2,15.9-10.8,15.9-19.3l-0.1-10.7C429.8,151.7,420.1,142.2,409.5,142.3z"/>
<rect x="0.5" y="0.5" class="st3" width="571.1" height="722.3"/>
</svg>
